<svg width="489" height="367" viewBox="0 0 489 367" fill="none" xmlns="http://www.w3.org/2000/svg">
<g opacity="0.1">
<mask id="mask0_1_470" style="mask-type:alpha" maskUnits="userSpaceOnUse" x="0" y="0" width="489" height="367">
<rect x="487.498" y="0.531262" width="365.458" height="486.262" transform="rotate(90 487.498 0.531262)" fill="url(#paint0_linear_1_470)" stroke="#6246E5" stroke-width="1.01516"/>
</mask>
<g mask="url(#mask0_1_470)">
<path d="M240.819 460.826C170.435 460.826 113.376 403.687 113.376 333.202C113.376 262.716 170.435 205.578 240.819 205.578C311.203 205.578 368.262 262.716 368.262 333.202C368.262 403.687 311.203 460.826 240.819 460.826Z" stroke="#6246E5" stroke-width="1.01516"/>
<path d="M254.287 465.883C175.535 465.883 111.693 401.951 111.693 323.086C111.693 244.22 175.535 180.289 254.287 180.289C333.04 180.289 396.882 244.22 396.882 323.086C396.882 401.951 333.04 465.883 254.287 465.883Z" stroke="#6246E5" stroke-width="1.01516"/>
<path d="M265.23 470.942C179.04 470.942 109.167 400.971 109.167 314.657C109.167 228.342 179.04 158.372 265.23 158.372C351.421 158.372 421.294 228.342 421.294 314.657C421.294 400.971 351.421 470.942 265.23 470.942Z" stroke="#6246E5" stroke-width="1.01516"/>
<path d="M281.225 474.314C188.525 474.314 113.376 399.059 113.376 306.227C113.376 213.395 188.525 138.141 281.225 138.141C373.924 138.141 449.073 213.395 449.073 306.227C449.073 399.059 373.924 474.314 281.225 474.314Z" stroke="#6246E5" stroke-width="1.01516"/>
<path d="M296.797 477.685C197.822 477.685 117.585 397.336 117.585 298.219C117.585 199.101 197.822 118.752 296.797 118.752C395.773 118.752 476.01 199.101 476.01 298.219C476.01 397.336 395.773 477.685 296.797 477.685Z" stroke="#6246E5" stroke-width="1.01516"/>
<path d="M314.475 481.9C205.736 481.9 117.585 393.625 117.585 284.731C117.585 175.837 205.736 87.5625 314.475 87.5625C423.213 87.5625 511.364 175.837 511.364 284.731C511.364 393.625 423.213 481.9 314.475 481.9Z" stroke="#6246E5" stroke-width="1.01516"/>
</g>
</g>
<defs>
<linearGradient id="paint0_linear_1_470" x1="747.923" y1="13.6948" x2="495.827" y2="491.428" gradientUnits="userSpaceOnUse">
<stop stop-color="#747DEF"/>
<stop offset="1" stop-color="#5E3BE1"/>
</linearGradient>
</defs>
</svg>
