<svg width="145" height="169" viewBox="0 0 145 169" fill="none" xmlns="http://www.w3.org/2000/svg">
<path d="M12.7009 154.647V156.545H1.81764V154.647H12.7009ZM8.27343 150.013V161.572H6.25599V150.013H8.27343Z" fill="#E5E5E5"/>
<path d="M48.2315 119.116V121.014H37.3483V119.116H48.2315ZM43.8041 114.482V126.041H41.7866V114.482H43.8041Z" fill="#E5E5E5"/>
<path d="M83.7622 12.5247V14.4221H72.8789V12.5247H83.7622ZM79.3347 7.89001V19.4494H77.3173V7.89001H79.3347Z" fill="#E5E5E5"/>
<path d="M83.7622 48.0552V49.9527H72.8789V48.0552H83.7622ZM79.3347 43.4205V54.9799H77.3173V43.4205H79.3347Z" fill="#E5E5E5"/>
<path d="M83.7622 83.5859V85.4834H72.8789V83.5859H83.7622ZM79.3347 78.9513V90.5106H77.3173V78.9513H79.3347Z" fill="#6246E5"/>
<path d="M83.7622 119.116V121.014H72.8789V119.116H83.7622ZM79.3347 114.482V126.041H77.3173V114.482H79.3347Z" fill="#E5E5E5"/>
<path d="M83.7622 154.647V156.545H72.8789V154.647H83.7622ZM79.3347 150.013V161.572H77.3173V150.013H79.3347Z" fill="#E5E5E5"/>
<path d="M119.293 12.5247V14.4221H108.41V12.5247H119.293ZM114.865 7.89001V19.4494H112.848V7.89001H114.865Z" fill="#E5E5E5"/>
<path d="M119.293 48.0552V49.9527H108.41V48.0552H119.293ZM114.865 43.4205V54.9799H112.848V43.4205H114.865Z" fill="#E5E5E5"/>
<path d="M119.293 83.5859V85.4834H108.41V83.5859H119.293ZM114.865 78.9513V90.5106H112.848V78.9513H114.865Z" fill="#E5E5E5"/>
<path d="M119.293 119.116V121.014H108.41V119.116H119.293ZM114.865 114.482V126.041H112.848V114.482H114.865Z" fill="#E5E5E5"/>
<path d="M119.293 154.647V156.545H108.41V154.647H119.293ZM114.865 150.013V161.572H112.848V150.013H114.865Z" fill="#E5E5E5"/>
<path d="M154.823 12.5247V14.4221H143.94V12.5247H154.823ZM150.396 7.89001V19.4494H148.379V7.89001H150.396Z" fill="#FF7152"/>
<path d="M154.823 48.0552V49.9527H143.94V48.0552H154.823ZM150.396 43.4205V54.9799H148.379V43.4205H150.396Z" fill="#E5E5E5"/>
<path d="M154.823 83.5859V85.4834H143.94V83.5859H154.823ZM150.396 78.9513V90.5106H148.379V78.9513H150.396Z" fill="#E5E5E5"/>
<path d="M154.823 119.116V121.014H143.94V119.116H154.823ZM150.396 114.482V126.041H148.379V114.482H150.396Z" fill="#E5E5E5"/>
<path d="M154.823 154.647V156.545H143.94V154.647H154.823ZM150.396 150.013V161.572H148.379V150.013H150.396Z" fill="#E5E5E5"/>
</svg>
