<svg width="72" height="72" viewBox="0 0 72 72" fill="none" xmlns="http://www.w3.org/2000/svg">
<circle cx="35.5584" cy="35.6598" r="35.5307" fill="url(#paint0_linear_1_489)"/>
<path d="M53.4359 24.4834C54.1377 25.6989 54.0436 27.1463 53.1894 28.2604L34.4355 52.733C33.6621 53.7422 32.3886 54.2567 31.0864 54.0068C29.8112 53.7615 28.8001 52.832 28.4492 51.5817L25.6743 41.7056L25.3853 40.6784L24.6402 39.9145L17.4747 32.5733C16.5674 31.6443 16.268 30.3039 16.6932 29.0769C17.114 27.864 18.1695 26.9839 19.4708 26.8134L50.0417 22.8083C51.4336 22.6256 52.7341 23.2678 53.4359 24.4834Z" fill="white"/>
<path d="M25.6743 41.7055L28.4492 51.5816C28.8001 52.8318 29.8111 53.7613 31.0864 54.0066C32.3886 54.2567 33.6621 53.7421 34.4355 52.7329L53.1894 28.2603C54.0436 27.1462 54.1377 25.6988 53.4358 24.4832L25.3853 40.6782L25.6743 41.7055Z" fill="white"/>
<path d="M36.8001 34.0879C37.0855 34.5822 36.9166 35.2148 36.4216 35.5005L25.6744 41.7055L25.3854 40.6782L24.6403 39.9143L35.3875 33.7094C35.8824 33.4237 36.5147 33.5936 36.8001 34.0879Z" fill="url(#paint1_linear_1_489)"/>
<path d="M25.6743 41.7056L36.4216 35.5007C36.9165 35.215 37.0855 34.5825 36.8001 34.0881L25.3853 40.6784L25.6743 41.7056Z" fill="url(#paint2_linear_1_489)"/>
<defs>
<linearGradient id="paint0_linear_1_489" x1="50.4272" y1="2.12286" x2="19.8883" y2="79.0725" gradientUnits="userSpaceOnUse">
<stop stop-color="#747DEF"/>
<stop offset="1" stop-color="#5E3BE1"/>
</linearGradient>
<linearGradient id="paint1_linear_1_489" x1="32.9268" y1="35.1971" x2="34.0816" y2="37.5126" gradientUnits="userSpaceOnUse">
<stop stop-color="#747DEF"/>
<stop offset="1" stop-color="#5E3BE1"/>
</linearGradient>
<linearGradient id="paint2_linear_1_489" x1="33.4293" y1="36.0677" x2="34.0426" y2="37.209" gradientUnits="userSpaceOnUse">
<stop stop-color="#747DEF"/>
<stop offset="1" stop-color="#5E3BE1"/>
</linearGradient>
</defs>
</svg>
