<svg width="17" height="17" viewBox="0 0 17 17" fill="none" xmlns="http://www.w3.org/2000/svg">
<path d="M1.0064 15.8052H2.63066V6.87175C2.63066 6.72225 2.75187 6.60104 2.90137 6.60104H6.6913V0.374714C6.6913 0.225214 6.81251 0.104004 6.96201 0.104004H14.0005C14.15 0.104004 14.2712 0.225214 14.2712 0.374714V15.8052H16.7076C16.8571 15.8052 16.9783 15.9264 16.9783 16.0759C16.9783 16.2254 16.8571 16.3466 16.7076 16.3466H1.0064C0.856899 16.3466 0.735687 16.2254 0.735687 16.0759C0.735687 15.9264 0.856899 15.8052 1.0064 15.8052ZM11.2934 15.8052H12.3762V13.3688C12.3762 13.2193 12.255 13.0981 12.1055 13.0981H11.5641C11.4146 13.0981 11.2934 13.2193 11.2934 13.3688V15.8052ZM10.2105 6.87175V15.8052H10.7519V13.3688C10.7519 12.9202 11.1155 12.5567 11.5641 12.5567H12.1055C12.554 12.5567 12.9176 12.9202 12.9176 13.3688V15.8052H13.7298V0.645423H7.23272V6.60104H9.93982C10.0893 6.60104 10.2105 6.72225 10.2105 6.87175ZM3.17208 15.8052H9.66911V7.14246H3.17208V15.8052Z" fill="#84829A"/>
<path d="M8.31548 3.89404H9.93974C10.0892 3.89404 10.2104 4.01525 10.2104 4.16475V5.78901C10.2104 5.93851 10.0892 6.05972 9.93974 6.05972H8.31548C8.16598 6.05972 8.04477 5.93851 8.04477 5.78901V4.16475C8.04477 4.01525 8.16598 3.89404 8.31548 3.89404ZM8.58619 5.5183H9.66903V4.43546H8.58619V5.5183Z" fill="#84829A"/>
<path d="M8.31548 1.18689H9.93974C10.0892 1.18689 10.2104 1.3081 10.2104 1.4576V3.08186C10.2104 3.23136 10.0892 3.35257 9.93974 3.35257H8.31548C8.16598 3.35257 8.04477 3.23136 8.04477 3.08186V1.4576C8.04477 1.3081 8.16598 1.18689 8.31548 1.18689ZM8.58619 2.81115H9.66903V1.72831H8.58619V2.81115Z" fill="#84829A"/>
<path d="M11.0226 3.89404H12.6469C12.7964 3.89404 12.9176 4.01525 12.9176 4.16475V5.78901C12.9176 5.93851 12.7964 6.05972 12.6469 6.05972H11.0226C10.8731 6.05972 10.7519 5.93851 10.7519 5.78901V4.16475C10.7519 4.01525 10.8731 3.89404 11.0226 3.89404ZM11.2933 5.5183H12.3762V4.43546H11.2933V5.5183Z" fill="#84829A"/>
<path d="M11.0226 1.18689H12.6469C12.7964 1.18689 12.9176 1.3081 12.9176 1.4576V3.08186C12.9176 3.23136 12.7964 3.35257 12.6469 3.35257H11.0226C10.8731 3.35257 10.7519 3.23136 10.7519 3.08186V1.4576C10.7519 1.3081 10.8731 1.18689 11.0226 1.18689ZM11.2933 2.81115H12.3762V1.72831H11.2933V2.81115Z" fill="#84829A"/>
<path d="M11.0226 6.60095H12.6469C12.7964 6.60095 12.9176 6.72216 12.9176 6.87166V8.49592C12.9176 8.64542 12.7964 8.76663 12.6469 8.76663H11.0226C10.8731 8.76663 10.7519 8.64542 10.7519 8.49592V6.87166C10.7519 6.72216 10.8731 6.60095 11.0226 6.60095ZM11.2933 8.22521H12.3762V7.14237H11.2933V8.22521Z" fill="#84829A"/>
<path d="M11.0226 9.30823H12.6469C12.7964 9.30823 12.9176 9.42944 12.9176 9.57894V11.2032C12.9176 11.3527 12.7964 11.4739 12.6469 11.4739H11.0226C10.8731 11.4739 10.7519 11.3527 10.7519 11.2032V9.57894C10.7519 9.42944 10.8731 9.30823 11.0226 9.30823ZM11.2933 10.9325H12.3762V9.84965H11.2933V10.9325Z" fill="#84829A"/>
<path d="M5.87907 12.5567H4.25481C4.10531 12.5567 3.9841 12.4355 3.9841 12.286V10.6617C3.9841 10.5122 4.10531 10.391 4.25481 10.391H5.87907C6.02857 10.391 6.14978 10.5122 6.14978 10.6617V12.286C6.14978 12.4355 6.02857 12.5567 5.87907 12.5567ZM5.60836 10.9324H4.52552V12.0152H5.60836V10.9324Z" fill="#84829A"/>
<path d="M5.87907 9.84952H4.25481C4.10531 9.84952 3.9841 9.72831 3.9841 9.57881V7.95455C3.9841 7.80505 4.10531 7.68384 4.25481 7.68384H5.87907C6.02857 7.68384 6.14978 7.80505 6.14978 7.95455V9.57881C6.14978 9.72831 6.02857 9.84952 5.87907 9.84952ZM5.60836 8.22526H4.52552V9.3081H5.60836V8.22526Z" fill="#84829A"/>
<path d="M5.87907 15.2638H4.25481C4.10531 15.2638 3.9841 15.1426 3.9841 14.9931V13.3689C3.9841 13.2194 4.10531 13.0981 4.25481 13.0981H5.87907C6.02857 13.0981 6.14978 13.2194 6.14978 13.3689V14.9931C6.14978 15.1426 6.02857 15.2638 5.87907 15.2638ZM5.60836 13.6396H4.52552V14.7224H5.60836V13.6396Z" fill="#84829A"/>
<path d="M8.58622 12.5567H6.96197C6.81247 12.5567 6.69126 12.4355 6.69126 12.286V10.6617C6.69126 10.5122 6.81247 10.391 6.96197 10.391H8.58622C8.73572 10.391 8.85693 10.5122 8.85693 10.6617V12.286C8.85693 12.4355 8.73572 12.5567 8.58622 12.5567ZM8.31551 10.9324H7.23268V12.0152H8.31551V10.9324Z" fill="#84829A"/>
<path d="M8.58622 9.84952H6.96197C6.81247 9.84952 6.69126 9.72831 6.69126 9.57881V7.95455C6.69126 7.80505 6.81247 7.68384 6.96197 7.68384H8.58622C8.73572 7.68384 8.85693 7.80505 8.85693 7.95455V9.57881C8.85693 9.72831 8.73572 9.84952 8.58622 9.84952ZM8.31551 8.22526H7.23268V9.3081H8.31551V8.22526Z" fill="#84829A"/>
<path d="M8.58622 15.2638H6.96197C6.81247 15.2638 6.69126 15.1426 6.69126 14.9931V13.3689C6.69126 13.2194 6.81247 13.0981 6.96197 13.0981H8.58622C8.73572 13.0981 8.85693 13.2194 8.85693 13.3689V14.9931C8.85693 15.1426 8.73572 15.2638 8.58622 15.2638ZM8.31551 13.6396H7.23268V14.7224H8.31551V13.6396Z" fill="#84829A"/>
</svg>
