<svg width="99" height="258" viewBox="0 0 99 258" fill="none" xmlns="http://www.w3.org/2000/svg">
<path d="M8.95425 14.727C16.0876 6.08147 34.1247 -7.21104 49.2067 8.7832C64.2886 24.7774 43.9416 54.7126 31.8828 67.6809C25.9384 71.2832 13.54 77.4072 11.5019 73.0844C8.95424 67.6809 7.42567 56.3337 28.3162 46.6074C41.7336 40.8437 70.7086 34.7198 79.2686 56.3337C83.175 65.6997 83.8543 87.4576 55.321 99.5613L19.6543 115.231M19.6543 115.231C6.06694 115.776 -13.4648 109.297 17.1066 79.0282C26.7876 74.3452 50.2258 64.8711 66.5305 64.4389C75.8718 66.4201 93.8411 76.2184 90.9877 99.5613C91.3274 104.244 84.9753 115.88 56.8496 124.958C50.3956 126.399 35.9591 129.388 29.8448 129.821L7.93526 133.063L19.6543 115.231ZM19.6543 115.231C28.5699 112.71 49.6118 108.423 62.4544 111.449C78.5076 115.231 84.8734 111.989 97.6115 133.063C99.8195 143.87 98.223 166.024 74.1734 168.185C50.1239 170.347 34.6004 166.204 29.8448 163.863V143.87M29.8448 143.87C47.3385 145.491 84.8734 144.302 95.0639 126.579C99.9893 113.971 100.363 88.2141 62.4544 86.0527C53.2829 86.4129 33.7172 87.5657 28.8257 89.2948L29.8448 127.659C47.6781 129.28 85.1791 136.953 92.5163 154.677C96.4226 164.943 97.7134 186.557 71.6258 190.88C61.9448 191.24 40.0353 189.907 29.8448 181.694M29.8448 143.87V181.694M29.8448 143.87C40.8845 146.571 65.2058 154.028 74.1734 162.241C85.0433 171.247 100.974 193.582 77.7401 210.873C70.4369 213.574 51.0409 215.736 31.8828 202.767M29.8448 181.694L31.8828 202.767M29.8448 181.694C42.0734 190.339 67.0401 211.305 69.0782 226.002C69.9274 235.008 67.6515 253.776 51.7543 256.802C47.6782 257.522 37.5896 257.45 29.8448 251.399L31.8828 202.767" stroke="#84829A" stroke-width="1.01516"/>
</svg>
