<svg width="49" height="49" viewBox="0 0 49 49" fill="none" xmlns="http://www.w3.org/2000/svg">
<rect x="0.820044" y="0.179932" width="47.7126" height="48.7278" rx="13.1971" fill="#006380"/>
<path d="M17.5702 26.7009C17.2691 26.7009 16.9746 26.7902 16.7242 26.9576C16.4738 27.1249 16.2786 27.3627 16.1634 27.6409C16.0481 27.9192 16.018 28.2254 16.0767 28.5207C16.1355 28.8161 16.2805 29.0875 16.4935 29.3004C16.7064 29.5134 16.9778 29.6584 17.2732 29.7172C17.5685 29.7759 17.8747 29.7458 18.153 29.6305C18.4312 29.5153 18.669 29.3201 18.8363 29.0697C19.0037 28.8193 19.093 28.5248 19.093 28.2237C19.093 27.8198 18.9325 27.4325 18.647 27.1469C18.3614 26.8614 17.9741 26.7009 17.5702 26.7009ZM17.5702 28.985C17.4196 28.985 17.2724 28.9404 17.1472 28.8567C17.022 28.7731 16.9244 28.6542 16.8668 28.515C16.8092 28.3759 16.7941 28.2228 16.8235 28.0751C16.8529 27.9274 16.9254 27.7918 17.0319 27.6853C17.1383 27.5788 17.274 27.5063 17.4217 27.4769C17.5694 27.4476 17.7225 27.4626 17.8616 27.5203C18.0007 27.5779 18.1196 27.6755 18.2033 27.8007C18.2869 27.9259 18.3316 28.0731 18.3316 28.2237C18.3316 28.4256 18.2514 28.6193 18.1086 28.762C17.9658 28.9048 17.7722 28.985 17.5702 28.985Z" fill="white"/>
<path d="M32.7976 26.7009C32.4965 26.7009 32.2021 26.7902 31.9517 26.9576C31.7012 27.1249 31.5061 27.3627 31.3908 27.6409C31.2756 27.9192 31.2454 28.2254 31.3042 28.5207C31.3629 28.8161 31.5079 29.0875 31.7209 29.3004C31.9339 29.5134 32.2052 29.6584 32.5006 29.7172C32.796 29.7759 33.1021 29.7458 33.3804 29.6305C33.6586 29.5153 33.8964 29.3201 34.0638 29.0697C34.2311 28.8193 34.3204 28.5248 34.3204 28.2237C34.3204 27.8198 34.16 27.4325 33.8744 27.1469C33.5888 26.8614 33.2015 26.7009 32.7976 26.7009ZM32.7976 28.985C32.6471 28.985 32.4999 28.9404 32.3746 28.8567C32.2494 28.7731 32.1519 28.6542 32.0942 28.515C32.0366 28.3759 32.0215 28.2228 32.0509 28.0751C32.0803 27.9274 32.1528 27.7918 32.2593 27.6853C32.3658 27.5788 32.5014 27.5063 32.6491 27.4769C32.7968 27.4476 32.9499 27.4626 33.089 27.5203C33.2281 27.5779 33.347 27.6755 33.4307 27.8007C33.5144 27.9259 33.559 28.0731 33.559 28.2237C33.559 28.4256 33.4788 28.6193 33.336 28.762C33.1932 28.9048 32.9996 28.985 32.7976 28.985Z" fill="white"/>
<path d="M21.7578 28.6044H28.6101V29.3657H21.7578V28.6044Z" fill="white"/>
<path d="M21.7578 27.0817H28.6101V27.843H21.7578V27.0817Z" fill="white"/>
<path d="M24.0419 21.3713H26.326V22.1327H24.0419V21.3713Z" fill="white"/>
<path d="M36.6045 24.7975V24.0361C36.6036 23.7335 36.483 23.4436 36.269 23.2296C36.055 23.0156 35.765 22.895 35.4624 22.8941H33.9549L33.1669 20.1303L32.9309 19.19C32.8689 18.9431 32.7263 18.724 32.5256 18.5674C32.3249 18.4109 32.0776 18.3258 31.8231 18.3259H28.6101V16.8031C28.6095 16.6014 28.5291 16.4081 28.3864 16.2654C28.2438 16.1228 28.0505 16.0424 27.8487 16.0417H22.5191C22.3174 16.0424 22.1241 16.1228 21.9814 16.2654C21.8388 16.4081 21.7584 16.6014 21.7578 16.8031V18.3259H18.5448C18.2902 18.3258 18.043 18.4109 17.8423 18.5674C17.6416 18.724 17.4989 18.9431 17.437 19.19L17.2048 20.1265L16.4129 22.8941H14.9054C14.6028 22.895 14.3128 23.0156 14.0989 23.2296C13.8849 23.4436 13.7643 23.7335 13.7634 24.0361V24.7975C13.764 24.9904 13.8135 25.1799 13.9074 25.3484C14.0013 25.5168 14.1364 25.6587 14.3001 25.7606C13.956 26.1143 13.7634 26.5882 13.7634 27.0816V31.6499C13.7639 31.8096 13.7981 31.9674 13.8636 32.113C13.9292 32.2586 14.0248 32.3888 14.144 32.495V33.934C14.1449 34.2366 14.2656 34.5265 14.4795 34.7405C14.6935 34.9545 14.9835 35.0751 15.2861 35.076H18.3316C18.6342 35.0751 18.9242 34.9545 19.1381 34.7405C19.3521 34.5265 19.4727 34.2366 19.4736 33.934V32.7919H30.8942V33.934C30.8951 34.2366 31.0157 34.5265 31.2297 34.7405C31.4437 34.9545 31.7336 35.0751 32.0363 35.076H35.0817C35.3844 35.0751 35.6743 34.9545 35.8883 34.7405C36.1023 34.5265 36.2229 34.2366 36.2238 33.934V32.495C36.3431 32.3888 36.4386 32.2586 36.5042 32.113C36.5698 31.9674 36.604 31.8096 36.6045 31.6499V27.0816C36.6044 26.5882 36.4119 26.1143 36.0677 25.7606C36.2314 25.6587 36.3665 25.5168 36.4604 25.3484C36.5543 25.1799 36.6039 24.9904 36.6045 24.7975ZM22.5191 16.8031H27.8487V18.3259H22.5191V16.8031ZM18.1755 19.3766C18.1959 19.294 18.2433 19.2207 18.3103 19.1683C18.3772 19.1158 18.4597 19.0873 18.5448 19.0872H31.8231C31.9081 19.0873 31.9906 19.1158 32.0576 19.1683C32.1245 19.2207 32.1719 19.294 32.1923 19.3766L32.3104 19.8486H18.0575L18.1755 19.3766ZM17.8557 20.61H32.5121L33.8141 25.1782H22.8655C22.7761 24.6462 22.501 24.1631 22.0891 23.8147C21.6772 23.4663 21.1552 23.2751 20.6157 23.2751C20.0762 23.2751 19.5542 23.4663 19.1423 23.8147C18.7304 24.1631 18.4553 24.6462 18.3658 25.1782H16.5538L17.8557 20.61ZM22.0851 25.1782H19.1462C19.2294 24.8515 19.419 24.5619 19.6851 24.355C19.9512 24.1481 20.2786 24.0358 20.6157 24.0358C20.9528 24.0358 21.2802 24.1481 21.5463 24.355C21.8124 24.5619 22.002 24.8515 22.0851 25.1782ZM14.5247 24.0361C14.5247 23.9352 14.5648 23.8384 14.6362 23.767C14.7076 23.6956 14.8044 23.6555 14.9054 23.6555H16.1959L15.762 25.1782H14.9054C14.8044 25.1782 14.7076 25.1381 14.6362 25.0667C14.5648 24.9953 14.5247 24.8985 14.5247 24.7975V24.0361ZM18.7123 33.934C18.7123 34.0349 18.6722 34.1318 18.6008 34.2032C18.5294 34.2745 18.4325 34.3147 18.3316 34.3147H15.2861C15.1851 34.3147 15.0883 34.2745 15.0169 34.2032C14.9455 34.1318 14.9054 34.0349 14.9054 33.934V32.7919H18.7123V33.934ZM35.4624 33.934C35.4624 34.0349 35.4223 34.1318 35.3509 34.2032C35.2795 34.2745 35.1827 34.3147 35.0817 34.3147H32.0363C31.9353 34.3147 31.8385 34.2745 31.7671 34.2032C31.6957 34.1318 31.6556 34.0349 31.6556 33.934V32.7919H35.4624V33.934ZM35.8431 31.6499C35.8431 31.7508 35.803 31.8476 35.7316 31.919C35.6602 31.9904 35.5634 32.0305 35.4624 32.0305H14.9054C14.8044 32.0305 14.7076 31.9904 14.6362 31.919C14.5648 31.8476 14.5247 31.7508 14.5247 31.6499V31.2692H35.8431V31.6499ZM35.8431 30.5078H14.5247V27.0816C14.5256 26.779 14.6462 26.4891 14.8602 26.2751C15.0742 26.0611 15.3642 25.9405 15.6668 25.9396H34.7011C35.0037 25.9405 35.2936 26.0611 35.5076 26.2751C35.7216 26.4891 35.8422 26.779 35.8431 27.0816V30.5078ZM35.8431 24.7975C35.8431 24.8985 35.803 24.9953 35.7316 25.0667C35.6602 25.1381 35.5634 25.1782 35.4624 25.1782H34.6059L34.1719 23.6555H35.4624C35.5634 23.6555 35.6602 23.6956 35.7316 23.767C35.803 23.8384 35.8431 23.9352 35.8431 24.0361V24.7975Z" fill="white"/>
</svg>
