<svg width="175" height="162" viewBox="0 0 175 162" fill="none" xmlns="http://www.w3.org/2000/svg">
<path d="M51.5952 77.4212C51.5952 87.513 59.7763 95.6941 69.8681 95.6941L97.2775 95.6941C100.081 95.6941 102.353 93.4215 102.353 90.6182L102.353 56.1028C102.353 50.4962 97.8083 45.9511 92.2017 45.9511L56.671 45.9512C53.8677 45.9512 51.5952 48.2237 51.5952 51.027L51.5952 77.4212Z" fill="#FFF1DA"/>
<path d="M100.935 91.5728C99.5551 91.8907 98.2101 92.4704 96.9833 93.2755C93.7875 95.3224 91.9211 98.2239 92.8149 99.7556C93.7087 101.287 97.024 100.869 100.22 98.8219C101.463 98.0448 102.568 97.0553 103.468 95.9145C103.886 95.3634 103.964 94.6801 103.666 94.172L102.505 92.1822C102.21 91.6725 101.593 91.4337 100.935 91.5728Z" fill="#D5D6DB"/>
<path d="M92.923 64.1708C91.9225 64.4014 90.9471 64.822 90.0574 65.4059C87.7407 66.8897 86.3866 68.9935 87.0342 70.1032C87.6817 71.2129 90.0866 70.9092 92.4031 69.4256C93.3045 68.8618 94.106 68.1439 94.7587 67.3166C95.0612 66.9172 95.1172 66.4222 94.9016 66.0538L94.0608 64.613C93.8469 64.2436 93.4005 64.07 92.923 64.1708Z" fill="#D5D6DB"/>
<path d="M79.9164 65.4024C79.694 65.3793 79.4564 65.4402 79.2501 65.5727L73.8076 69.0594C73.3524 69.3501 73.1684 69.9049 73.3971 70.2986C73.4494 70.3888 73.5212 70.4657 73.6084 70.5247L86.9498 79.6084L105.098 67.982L79.9164 65.4024Z" fill="#029BC5"/>
<path d="M137.127 63.8629L87.8256 94.9639L58.6855 106.674L43.8367 109.711L42.216 106.97L124.39 56.1142C126.839 54.5922 129.564 53.649 132.29 53.3803C133.483 53.269 134.661 53.2997 135.796 53.4712C136.803 53.6154 137.757 53.9008 138.63 54.319C139.605 54.7929 141.464 54.8347 142.062 55.7889C142.064 55.7873 143.466 60.1779 137.127 63.8629V63.8629Z" fill="#E1E6E9"/>
<path d="M88.5563 91.0133L67.1292 124.918C66.8614 125.394 67.017 125.924 67.4764 126.101C67.7584 126.21 68.1042 126.163 68.3954 125.978L73.8278 122.519C74.8727 121.854 75.7989 121.011 76.5493 120.044L118.032 71.4728L88.5563 91.0133Z" fill="#029BC5"/>
<path d="M34.7532 89.8566C34.398 89.7381 33.9744 89.8041 33.6162 90.0337L29.1179 92.9158C28.505 93.3082 28.2584 94.0556 28.5668 94.5854C28.6256 94.6861 28.7021 94.7745 28.794 94.8472L41.3232 104.786L54.5733 96.4576L34.7532 89.8566Z" fill="#029BC5"/>
<path d="M45.5856 106.65L38.7933 116.104C38.6937 116.24 38.7163 116.409 38.8437 116.482C38.9355 116.535 39.0613 116.524 39.1638 116.455L43.3598 113.787C43.3924 113.767 43.4219 113.741 43.4464 113.711L53.3634 101.71L45.5856 106.65Z" fill="#029BC5"/>
<path d="M134.952 53.9183C133.781 53.7399 132.566 53.709 131.335 53.8259C130.13 55.5026 129.357 57.3816 129.092 59.2757C129.072 59.6559 129.378 59.9272 129.777 59.8816C129.901 59.8673 130.024 59.823 130.136 59.7527L137.874 54.8019C136.974 54.3657 135.99 54.0682 134.952 53.9183Z" fill="#029BC5"/>
<path d="M118.116 63.0087L123.181 59.7862L127.855 67.7366L122.789 70.9591L118.116 63.0087Z" fill="#D5D6DB"/>
<path d="M114.947 66.1381C114.337 66.5275 114.091 67.2684 114.397 67.7929L114.894 68.6426C115.221 69.1535 115.973 69.2378 116.572 68.8307C117.143 68.4431 117.375 67.745 117.103 67.2331L116.606 66.3834C116.3 65.8593 115.558 65.7494 114.947 66.1381V66.1381Z" fill="#3A556A"/>
<path d="M110.415 68.9527C109.805 69.342 109.559 70.083 109.865 70.6074L110.362 71.4572C110.689 71.9681 111.441 72.0523 112.04 71.6453C112.611 71.2577 112.843 70.5595 112.571 70.0476L112.074 69.1979C111.768 68.674 111.025 68.5641 110.415 68.9527V68.9527Z" fill="#3A556A"/>
<path d="M105.882 71.7681C105.272 72.1579 105.027 72.8979 105.333 73.422L105.83 74.2717C106.157 74.7825 106.908 74.8668 107.508 74.4598C108.079 74.0721 108.311 73.3741 108.039 72.8622L107.542 72.0125C107.235 71.488 106.492 71.3786 105.882 71.7681V71.7681Z" fill="#3A556A"/>
<path d="M101.35 74.5825C100.74 74.9723 100.495 75.7124 100.801 76.2364L101.298 77.0862C101.625 77.5971 102.376 77.6813 102.976 77.2743C103.547 76.8866 103.779 76.1885 103.507 75.6766L103.01 74.8269C102.703 74.3026 101.96 74.1932 101.35 74.5825V74.5825Z" fill="#3A556A"/>
<path d="M96.8181 77.3972C96.2082 77.7872 95.9626 78.5276 96.2692 79.0519L96.7664 79.902C97.0729 80.4261 97.8158 80.5355 98.4259 80.1463C99.0359 79.7571 99.282 79.0167 98.9755 78.4927L98.4783 77.6425C98.1726 77.118 97.4299 77.0079 96.8194 77.3964C96.8189 77.3967 96.8187 77.3969 96.8181 77.3972Z" fill="#3A556A"/>
<path d="M92.286 80.2117C91.6761 80.6017 91.4305 81.3421 91.7371 81.8664L92.2343 82.7166C92.5408 83.2406 93.2837 83.35 93.8938 82.9608C94.5038 82.5716 94.7499 81.8313 94.4434 81.3072L93.9462 80.4571C93.6405 79.9325 92.8977 79.8224 92.2873 80.2109C92.2868 80.2112 92.2863 80.2116 92.286 80.2117Z" fill="#3A556A"/>
<path d="M87.7537 83.0263C87.1438 83.4163 86.8982 84.1567 87.2048 84.6809L87.702 85.531C88.0092 86.0546 88.7526 86.1628 89.3619 85.7731C89.9703 85.3841 90.2158 84.6453 89.9108 84.1219L89.4136 83.2718C89.1072 82.7473 88.3643 82.6374 87.7537 83.0263Z" fill="#3A556A"/>
<path d="M83.2214 85.8408C82.6116 86.2308 82.3659 86.9712 82.6725 87.4955L83.1697 88.3456C83.4769 88.8692 84.2203 88.9774 84.8296 88.5877C85.438 88.1987 85.6835 87.4599 85.3785 86.9364L84.8813 86.0863C84.5749 85.5618 83.832 85.4519 83.2214 85.8408Z" fill="#3A556A"/>
<path d="M78.6895 88.6553C78.0796 89.0453 77.8339 89.7856 78.1405 90.3099L78.6377 91.16C78.9449 91.6836 79.6883 91.7918 80.2977 91.4021C80.906 91.0131 81.1515 90.2743 80.8465 89.7508L80.3493 88.9008C80.0427 88.3765 79.2997 88.2665 78.6895 88.6553Z" fill="#3A556A"/>
<path d="M74.1559 91.4705C73.5459 91.8597 73.2998 92.6001 73.6063 93.1241L73.607 93.1253L74.1041 93.9754C74.4114 94.499 75.1548 94.6071 75.7641 94.2174C76.3725 93.8284 76.618 93.0896 76.3129 92.5662L75.8158 91.716C75.5094 91.1916 74.7665 91.0816 74.1559 91.4705Z" fill="#3A556A"/>
<path d="M69.6251 94.2843C69.0151 94.6734 68.769 95.4138 69.0755 95.9378L69.0761 95.9389L69.5733 96.789C69.8806 97.3126 70.6239 97.4208 71.2333 97.0311C71.8417 96.6421 72.0872 95.9033 71.7821 95.3798L71.285 94.5298C70.9783 94.0055 70.2354 93.8955 69.6251 94.2843Z" fill="#3A556A"/>
</svg>
