<svg width="38" height="37" viewBox="0 0 38 37" fill="none" xmlns="http://www.w3.org/2000/svg">
<circle cx="19.054" cy="18.3916" r="18.2729" fill="#F5F5F5"/>
<g clip-path="url(#clip0_1_197)">
<path d="M25.8094 12.4537C25.4349 12.3441 16.2751 11.4321 13.0582 15.7781C11.6335 17.7035 11.6121 20.3427 12.9868 23.6221C12.6381 24.3459 12.3328 25.1084 12.084 25.9129C12.0083 26.1574 12.1452 26.4166 12.3894 26.492C12.4349 26.5061 12.481 26.5128 12.5265 26.5128C12.7239 26.5128 12.9072 26.3852 12.9684 26.1866C15.4202 18.2598 23.3882 14.4249 25.8316 13.4561C26.0694 13.3618 26.3872 12.6228 25.8094 12.4537Z" fill="#84829A"/>
<path d="M14.4574 24.614C15.7836 25.1704 17.1096 25.4556 18.3427 25.4556C19.4511 25.4556 20.4847 25.2277 21.3754 24.7656C23.168 23.8357 24.2635 22.0569 24.5432 19.621C24.8282 17.1385 25.183 15.5836 25.479 14.6323C22.8443 15.8476 17.1951 18.9978 14.4574 24.614Z" fill="#84829A"/>
</g>
<defs>
<clipPath id="clip0_1_197">
<rect width="14.2123" height="14.2123" fill="white" transform="translate(11.9479 12.3005)"/>
</clipPath>
</defs>
</svg>
