<svg width="38" height="37" viewBox="0 0 38 37" fill="none" xmlns="http://www.w3.org/2000/svg">
<circle cx="18.8728" cy="18.3914" r="18.2729" fill="#F5F5F5"/>
<g clip-path="url(#clip0_1_211)">
<path d="M24.457 11.2854C24.3782 11.2854 24.3004 11.3037 24.2299 11.3389L20.3835 13.2626L16.0341 11.3293C16.027 11.3263 16.0189 11.3257 16.0113 11.3227C15.9917 11.3154 15.9717 11.3093 15.9514 11.3044C15.9312 11.299 15.9107 11.2947 15.89 11.2917C15.8488 11.2883 15.8073 11.2883 15.7661 11.2917C15.7454 11.2947 15.7249 11.299 15.7047 11.3044C15.6844 11.3093 15.6644 11.3154 15.6448 11.3227C15.6372 11.3257 15.6291 11.3262 15.622 11.3293L11.0538 13.3596C10.8704 13.441 10.7523 13.6229 10.7523 13.8235V24.9901C10.7524 25.1618 10.8393 25.3219 10.9833 25.4155C11.1273 25.5092 11.3089 25.5237 11.4659 25.454L15.828 23.5151L20.1901 25.454C20.1977 25.4571 20.2058 25.454 20.2135 25.4586C20.3363 25.5136 20.4774 25.5104 20.5977 25.45C20.6058 25.4464 20.6149 25.45 20.623 25.4444L24.6836 23.4141C24.8557 23.3281 24.9644 23.1522 24.9643 22.9598V11.7932C24.9645 11.5129 24.7373 11.2855 24.457 11.2854ZM15.3205 22.6299L11.7675 24.2089V14.1534L15.3205 12.5744V22.6299ZM19.8886 24.2089L16.3356 22.6299V12.5744L19.8886 14.1534V24.2089ZM23.9492 22.6461L20.9038 24.1689V14.1372L23.9492 12.6144V22.6461Z" fill="#84829A"/>
</g>
<defs>
<clipPath id="clip0_1_211">
<rect width="14.2123" height="14.2123" fill="white" transform="translate(10.7515 11.2854)"/>
</clipPath>
</defs>
</svg>
