<svg width="49" height="50" viewBox="0 0 49 50" fill="none" xmlns="http://www.w3.org/2000/svg">
<rect x="0.820044" y="0.481812" width="47.7126" height="48.7278" rx="13.1971" fill="#F15A2B"/>
<path d="M34.136 32.8946C33.679 32.9039 33.2301 32.7732 32.8497 32.5199C32.5664 32.3348 32.2355 32.2363 31.8972 32.2363C31.5589 32.2363 31.2279 32.3348 30.9447 32.5199C30.5603 32.7646 30.1141 32.8946 29.6585 32.8946C29.2028 32.8946 28.7567 32.7646 28.3723 32.5199C28.0891 32.3346 27.758 32.236 27.4196 32.236C27.0812 32.236 26.7502 32.3346 26.467 32.5199C26.0826 32.7646 25.6364 32.8946 25.1808 32.8946C24.7252 32.8946 24.279 32.7646 23.8946 32.5199C23.6116 32.3348 23.2808 32.2362 22.9426 32.2362C22.6044 32.2362 22.2736 32.3348 21.9906 32.5199C21.6421 32.7515 21.2355 32.8802 20.8172 32.8913L20.7941 32.2328C21.1031 32.2255 21.4031 32.1277 21.6571 31.9516C22.0413 31.707 22.4874 31.577 22.9429 31.577C23.3985 31.577 23.8445 31.707 24.2288 31.9516C24.512 32.1367 24.843 32.2353 25.1813 32.2353C25.5196 32.2353 25.8506 32.1367 26.1338 31.9516C26.5182 31.7067 26.9645 31.5767 27.4203 31.5767C27.8761 31.5767 28.3224 31.7067 28.7068 31.9516C28.99 32.1367 29.321 32.2353 29.6593 32.2353C29.9976 32.2353 30.3286 32.1367 30.6118 31.9516C30.9962 31.707 31.4424 31.5771 31.898 31.5771C32.3536 31.5771 32.7998 31.707 33.1842 31.9516C33.468 32.1372 33.7998 32.236 34.139 32.236C34.4781 32.236 34.8099 32.1372 35.0938 31.9516C35.4738 31.6991 35.9219 31.5686 36.3781 31.5776V32.2361C36.0385 32.2268 35.7047 32.3261 35.4253 32.5196C35.0439 32.7732 34.594 32.9041 34.136 32.8946Z" fill="white"/>
<path d="M16.2285 32.8946C15.7717 32.904 15.3228 32.7732 14.9425 32.5199C14.6632 32.3262 14.3294 32.2268 13.9897 32.2361V31.5776C14.4467 31.5681 14.8956 31.6989 15.276 31.9523C15.5552 32.1459 15.8889 32.2454 16.2285 32.2361C16.5683 32.2454 16.9022 32.1458 17.1814 31.9519C17.561 31.6987 18.0092 31.568 18.4654 31.5776C18.9106 31.5676 19.3484 31.6923 19.7215 31.9355L19.3893 32.5037C19.1168 32.3204 18.7937 32.2268 18.4654 32.2361C18.127 32.2269 17.7946 32.3261 17.5165 32.5192C17.1358 32.7733 16.6862 32.9043 16.2285 32.8946Z" fill="white"/>
<path d="M34.137 30.5896C33.6797 30.5989 33.2305 30.4682 32.8497 30.2149C32.5662 30.0297 32.2349 29.931 31.8963 29.931C31.5577 29.931 31.2265 30.0297 30.943 30.2149C30.5587 30.4595 30.1126 30.5895 29.657 30.5895C29.2014 30.5895 28.7553 30.4595 28.371 30.2149C28.0879 30.0298 27.757 29.9312 27.4188 29.9312C27.0806 29.9312 26.7497 30.0298 26.4666 30.2149C26.0824 30.4596 25.6362 30.5896 25.1806 30.5896C24.725 30.5896 24.2789 30.4596 23.8946 30.2149C23.6115 30.0298 23.2807 29.9312 22.9424 29.9312C22.6042 29.9312 22.2733 30.0298 21.9903 30.2149C21.61 30.4683 21.1611 30.5991 20.7043 30.5896C20.2474 30.5991 19.7985 30.4683 19.4182 30.2149C19.1392 30.0212 18.8056 29.9218 18.4661 29.9311C18.1267 29.9219 17.7932 30.0213 17.5142 30.2149C17.1345 30.468 16.6864 30.5988 16.2302 30.5896C15.7732 30.5991 15.3243 30.4683 14.9438 30.2149C14.6642 30.0209 14.3299 29.9214 13.9897 29.9311V29.2726C14.4466 29.2632 14.8954 29.3939 15.2757 29.6473C15.555 29.8409 15.8888 29.9403 16.2285 29.9311C16.568 29.9403 16.9014 29.8409 17.1804 29.6473C17.5601 29.3942 18.0082 29.2634 18.4644 29.2726C18.9217 29.2629 19.3709 29.3937 19.7514 29.6473C20.0306 29.841 20.3643 29.9404 20.7039 29.9311C21.0436 29.9404 21.3773 29.841 21.6564 29.6473C22.0407 29.4025 22.4868 29.2725 22.9424 29.2725C23.398 29.2725 23.8442 29.4025 24.2285 29.6473C24.5116 29.8324 24.8425 29.931 25.1808 29.931C25.5191 29.931 25.85 29.8324 26.1331 29.6473C26.5174 29.4025 26.9635 29.2725 27.4191 29.2725C27.8747 29.2725 28.3209 29.4025 28.7052 29.6473C28.9883 29.8324 29.3192 29.931 29.6575 29.931C29.9958 29.931 30.3267 29.8324 30.6098 29.6473C30.9945 29.4026 31.4409 29.2727 31.8968 29.2727C32.3527 29.2727 32.7992 29.4026 33.1838 29.6473C33.4675 29.8324 33.7988 29.9309 34.1375 29.9309C34.4762 29.9309 34.8075 29.8324 35.0911 29.6473C35.4719 29.3941 35.921 29.2633 36.3781 29.2726V29.9311C36.0377 29.9215 35.7032 30.0209 35.4233 30.2149C35.0428 30.468 34.5939 30.5987 34.137 30.5896Z" fill="white"/>
<path d="M34.136 28.2851C33.679 28.2945 33.2301 28.1637 32.8496 27.9105C32.5704 27.7168 32.2365 27.6174 31.8968 27.6267C31.6475 27.6181 31.3999 27.6713 31.1761 27.7814L30.8857 27.1888C31.2 27.0347 31.5469 26.9587 31.8968 26.9672C32.3544 26.9579 32.8037 27.089 33.1845 27.3429C33.4684 27.5284 33.8001 27.6272 34.1393 27.6272C34.4784 27.6272 34.8102 27.5284 35.0941 27.3429C35.474 27.0902 35.922 26.9594 36.3781 26.9682V27.6267C36.0385 27.6174 35.7047 27.7167 35.4253 27.9101C35.0439 28.1638 34.594 28.2946 34.136 28.2851Z" fill="white"/>
<path d="M29.655 28.2851C29.1988 28.2947 28.7506 28.164 28.371 27.9108C28.0878 27.7255 27.7567 27.6269 27.4183 27.6269C27.0799 27.6269 26.7489 27.7255 26.4657 27.9108C26.0813 28.1555 25.6351 28.2854 25.1795 28.2854C24.7238 28.2854 24.2776 28.1555 23.8933 27.9108C23.6101 27.7256 23.2791 27.627 22.9408 27.627C22.6025 27.627 22.2715 27.7256 21.9883 27.9108C21.6081 28.1637 21.1595 28.2943 20.7029 28.2851C20.2461 28.2946 19.7972 28.1638 19.4169 27.9104C19.1376 27.7168 18.8038 27.6174 18.4641 27.6266C18.1257 27.6175 17.7933 27.7167 17.5152 27.9098C17.1348 28.1636 16.6857 28.2946 16.2285 28.2851C15.7717 28.2946 15.3228 28.1638 14.9425 27.9104C14.6632 27.7168 14.3294 27.6174 13.9897 27.6266V26.9681C14.4467 26.9587 14.8956 27.0894 15.276 27.3428C15.5552 27.5365 15.8889 27.6359 16.2285 27.6266C16.5683 27.636 16.9022 27.5364 17.1814 27.3425C17.561 27.0892 18.0092 26.9586 18.4654 26.9681C18.9223 26.9587 19.3711 27.0895 19.7514 27.3428C20.0306 27.5365 20.3643 27.6359 20.7039 27.6266C21.0436 27.6359 21.3775 27.5364 21.6568 27.3428C22.0411 27.0981 22.4873 26.9681 22.9429 26.9681C23.3986 26.9681 23.8448 27.0981 24.2291 27.3428C24.5123 27.5279 24.8433 27.6265 25.1816 27.6265C25.5199 27.6265 25.8509 27.5279 26.1341 27.3428C26.5185 27.0979 26.9648 26.9679 27.4206 26.9679C27.8764 26.9679 28.3227 27.0979 28.7071 27.3428C28.9972 27.5379 29.3412 27.6371 29.6906 27.6263C29.716 27.6266 29.7414 27.6253 29.7666 27.6223L29.8542 28.2749C29.7881 28.2826 29.7216 28.286 29.655 28.2851Z" fill="white"/>
<path d="M34.137 25.9801C33.6797 25.9894 33.2305 25.8587 32.8497 25.6054C32.5662 25.4202 32.2349 25.3215 31.8963 25.3215C31.5577 25.3215 31.2265 25.4202 30.943 25.6054C30.5587 25.85 30.1126 25.98 29.657 25.98C29.2014 25.98 28.7553 25.85 28.371 25.6054C28.0879 25.4203 27.757 25.3217 27.4188 25.3217C27.0806 25.3217 26.7497 25.4203 26.4666 25.6054C26.0824 25.8501 25.6362 25.9801 25.1806 25.9801C24.725 25.9801 24.2789 25.8501 23.8946 25.6054C23.6115 25.4203 23.2807 25.3217 22.9424 25.3217C22.6042 25.3217 22.2733 25.4203 21.9903 25.6054C21.61 25.8588 21.1611 25.9896 20.7043 25.9801C20.2474 25.9896 19.7985 25.8588 19.4182 25.6054C19.1392 25.4118 18.8056 25.3123 18.4661 25.3216C18.1267 25.3124 17.7932 25.4118 17.5142 25.6054C17.1345 25.8585 16.6864 25.9893 16.2302 25.9801C15.7732 25.9896 15.3243 25.8588 14.9438 25.6054C14.6642 25.4114 14.3299 25.3119 13.9897 25.3216V24.6631C14.4466 24.6537 14.8954 24.7844 15.2757 25.0378C15.555 25.2314 15.8888 25.3308 16.2285 25.3216C16.568 25.3308 16.9014 25.2314 17.1804 25.0378C17.5601 24.7847 18.0082 24.6539 18.4644 24.6631C18.9217 24.6534 19.3709 24.7842 19.7514 25.0378C20.0306 25.2315 20.3643 25.3309 20.7039 25.3216C21.0436 25.3309 21.3773 25.2315 21.6564 25.0378C22.0407 24.793 22.4868 24.663 22.9424 24.663C23.398 24.663 23.8442 24.793 24.2285 25.0378C24.5116 25.2229 24.8425 25.3215 25.1808 25.3215C25.5191 25.3215 25.85 25.2229 26.1331 25.0378C26.5174 24.793 26.9635 24.663 27.4191 24.663C27.8747 24.663 28.3209 24.793 28.7052 25.0378C28.9883 25.2229 29.3192 25.3215 29.6575 25.3215C29.9958 25.3215 30.3267 25.2229 30.6098 25.0378C30.9945 24.7931 31.4409 24.6632 31.8968 24.6632C32.3527 24.6632 32.7992 24.7931 33.1838 25.0378C33.4675 25.2229 33.7988 25.3214 34.1375 25.3214C34.4762 25.3214 34.8075 25.2229 35.0911 25.0378C35.4719 24.7846 35.921 24.6538 36.3781 24.6631V25.3216C36.0377 25.312 35.7032 25.4114 35.4233 25.6054C35.0428 25.8585 34.5939 25.9892 34.137 25.9801Z" fill="white"/>
<path d="M29.4453 25.7009L28.824 25.4829C28.984 25.0232 29.0494 24.5359 29.0162 24.0502C28.983 23.5646 28.8519 23.0907 28.6308 22.657L26.3692 18.2284C26.3469 18.1847 26.3346 18.1365 26.3333 18.0874C26.332 18.0383 26.3417 17.9896 26.3617 17.9447C26.3817 17.8999 26.4114 17.86 26.4488 17.8282C26.4861 17.7963 26.5302 17.7732 26.5776 17.7606L31.0846 16.5588C31.2315 16.5204 31.3572 16.4256 31.4345 16.2949C31.5118 16.1642 31.5344 16.0083 31.4973 15.8611C31.4603 15.7139 31.3666 15.5873 31.2366 15.5088C31.1067 15.4303 30.951 15.4063 30.8034 15.442L25.3485 16.7458C25.2319 16.7734 25.1232 16.8274 25.0309 16.9037C24.9385 16.9801 24.8649 17.0766 24.8159 17.1859C24.7668 17.2953 24.7436 17.4144 24.748 17.5341C24.7524 17.6539 24.7843 17.771 24.8412 17.8764L26.4611 20.8857C26.5021 20.9622 26.5114 21.0518 26.4867 21.1351C26.462 21.2183 26.4055 21.2884 26.3294 21.3302L24.2387 22.4825L23.921 21.9057L25.7259 20.9107L24.262 18.1886C24.1573 17.9942 24.0987 17.7784 24.0907 17.5578C24.0827 17.3372 24.1256 17.1177 24.216 16.9163C24.3064 16.7149 24.4419 16.537 24.612 16.3964C24.7821 16.2557 24.9823 16.1561 25.1971 16.1051L30.6493 14.8017C30.9667 14.7215 31.303 14.7706 31.5842 14.9384C31.8653 15.1061 32.0683 15.3786 32.1485 15.696C32.2287 16.0135 32.1796 16.3497 32.0118 16.6309C31.8441 16.912 31.5716 17.115 31.2542 17.1952L27.1406 18.2916L29.2175 22.3571C29.479 22.8703 29.634 23.4311 29.6731 24.0057C29.7123 24.5803 29.6348 25.157 29.4453 25.7009Z" fill="white"/>
<path d="M22.7701 22.5452L18.7691 24.7499L19.0868 25.3263L23.0878 23.1216L22.7701 22.5452Z" fill="white"/>
<path d="M32.4272 23.5108C31.9389 23.5108 31.4614 23.3659 31.0554 23.0946C30.6493 22.8233 30.3328 22.4376 30.1459 21.9864C29.959 21.5352 29.9101 21.0387 30.0054 20.5597C30.1007 20.0807 30.3358 19.6407 30.6812 19.2954C31.0265 18.95 31.4665 18.7149 31.9455 18.6196C32.4245 18.5243 32.921 18.5732 33.3722 18.7601C33.8234 18.947 34.2091 19.2635 34.4804 19.6696C34.7517 20.0757 34.8965 20.5531 34.8965 21.0415C34.8958 21.6961 34.6355 22.3238 34.1725 22.7868C33.7096 23.2497 33.0819 23.5101 32.4272 23.5108ZM32.4272 19.2306C32.0691 19.2306 31.719 19.3368 31.4212 19.5358C31.1234 19.7348 30.8913 20.0176 30.7542 20.3485C30.6172 20.6794 30.5813 21.0435 30.6512 21.3947C30.7211 21.746 30.8935 22.0687 31.1468 22.3219C31.4 22.5752 31.7227 22.7476 32.074 22.8175C32.4252 22.8874 32.7893 22.8515 33.1202 22.7144C33.4511 22.5774 33.7339 22.3453 33.9329 22.0475C34.1319 21.7497 34.2381 21.3996 34.2381 21.0415C34.2375 20.5614 34.0465 20.1011 33.707 19.7617C33.3675 19.4222 32.9073 19.2312 32.4272 19.2306Z" fill="white"/>
</svg>
