<svg width="156" height="169" viewBox="0 0 156 169" fill="none" xmlns="http://www.w3.org/2000/svg">
<path d="M12.3673 13.1291V15.0266H1.48402V13.1291H12.3673ZM7.93981 8.4945V20.0539H5.92237V8.4945H7.93981Z" fill="#FF7152"/>
<path d="M12.3674 48.6598V50.5573H1.48414V48.6598H12.3674ZM7.93993 44.0252V55.5845H5.9225V44.0252H7.93993Z" fill="#E5E5E5"/>
<path d="M12.3674 84.1905V86.0879H1.48414V84.1905H12.3674ZM7.93993 79.5558V91.1152H5.9225V79.5558H7.93993Z" fill="#E5E5E5"/>
<path d="M47.898 13.1291V15.0266H37.0148V13.1291H47.898ZM43.4706 8.4945V20.0539H41.4531V8.4945H43.4706Z" fill="#E5E5E5"/>
<path d="M47.898 48.6598V50.5573H37.0148V48.6598H47.898ZM43.4706 44.0252V55.5845H41.4531V44.0252H43.4706Z" fill="#E5E5E5"/>
<path d="M47.898 84.1905V86.0879H37.0148V84.1905H47.898ZM43.4706 79.5558V91.1152H41.4531V79.5558H43.4706Z" fill="#E5E5E5"/>
<path d="M47.898 119.721V121.619H37.0148V119.721H47.898ZM43.4706 115.086V126.646H41.4531V115.086H43.4706Z" fill="#E5E5E5"/>
<path d="M83.4287 13.1291V15.0266H72.5454V13.1291H83.4287ZM79.0012 8.4945V20.0539H76.9838V8.4945H79.0012Z" fill="#E5E5E5"/>
<path d="M83.4287 48.6598V50.5573H72.5454V48.6598H83.4287ZM79.0012 44.0252V55.5845H76.9838V44.0252H79.0012Z" fill="#E5E5E5"/>
<path d="M83.4287 84.1905V86.0879H72.5454V84.1905H83.4287ZM79.0012 79.5558V91.1152H76.9838V79.5558H79.0012Z" fill="#6246E5"/>
<path d="M83.4287 119.721V121.619H72.5454V119.721H83.4287ZM79.0012 115.086V126.646H76.9838V115.086H79.0012Z" fill="#E5E5E5"/>
<path d="M83.4287 155.252V157.149H72.5454V155.252H83.4287ZM79.0012 150.617V162.176H76.9838V150.617H79.0012Z" fill="#E5E5E5"/>
<path d="M118.959 13.1291V15.0266H108.076V13.1291H118.959ZM114.532 8.4945V20.0539H112.514V8.4945H114.532Z" fill="#E5E5E5"/>
<path d="M118.959 48.6598V50.5573H108.076V48.6598H118.959ZM114.532 44.0252V55.5845H112.514V44.0252H114.532Z" fill="#E5E5E5"/>
<path d="M118.959 84.1905V86.0879H108.076V84.1905H118.959ZM114.532 79.5558V91.1152H112.514V79.5558H114.532Z" fill="#E5E5E5"/>
<path d="M118.959 119.721V121.619H108.076V119.721H118.959ZM114.532 115.086V126.646H112.514V115.086H114.532Z" fill="#E5E5E5"/>
<path d="M118.959 155.252V157.149H108.076V155.252H118.959ZM114.532 150.617V162.176H112.514V150.617H114.532Z" fill="#E5E5E5"/>
<path d="M154.49 13.1291V15.0266H143.607V13.1291H154.49ZM150.062 8.4945V20.0539H148.045V8.4945H150.062Z" fill="#E5E5E5"/>
<path d="M154.49 48.6598V50.5573H143.607V48.6598H154.49ZM150.062 44.0252V55.5845H148.045V44.0252H150.062Z" fill="#E5E5E5"/>
<path d="M154.49 84.1905V86.0879H143.607V84.1905H154.49ZM150.062 79.5558V91.1152H148.045V79.5558H150.062Z" fill="#E5E5E5"/>
<path d="M154.49 119.721V121.619H143.607V119.721H154.49ZM150.062 115.086V126.646H148.045V115.086H150.062Z" fill="#E5E5E5"/>
<path d="M154.49 155.252V157.149H143.607V155.252H154.49ZM150.062 150.617V162.176H148.045V150.617H150.062Z" fill="#E5E5E5"/>
</svg>
