<svg width="79" height="68" viewBox="0 0 79 68" fill="none" xmlns="http://www.w3.org/2000/svg">
<path d="M27.4661 48.8761C27.4661 58.9679 35.6472 67.149 45.739 67.149L73.1484 67.149C75.9517 67.149 78.2242 64.8765 78.2242 62.0732L78.2242 27.5577C78.2242 21.9511 73.6792 17.4061 68.0726 17.4061L32.5419 17.4061C29.7386 17.4061 27.4661 19.6786 27.4661 22.4819L27.4661 48.8761Z" fill="#FFF1DA"/>
<path d="M50.8148 28.4187V22.636C50.8148 21.5023 49.8959 20.5834 48.7622 20.5834H46.5505C45.6662 20.5834 44.8815 20.0168 44.6035 19.1773C44.2939 18.2421 43.9176 17.3372 43.4805 16.4683C43.0824 15.6769 43.2348 14.7202 43.8612 14.0937L45.426 12.5289C46.2276 11.7273 46.2276 10.4277 45.426 9.62608L41.3369 5.53705C40.5353 4.73544 39.2357 4.73544 38.4341 5.53705L36.8693 7.10186C36.2429 7.72832 35.2861 7.8806 34.4947 7.4825C33.6258 7.04539 32.7209 6.66914 31.7858 6.35949C30.9463 6.08149 30.3796 5.29684 30.3796 4.4125V2.2009C30.3796 1.06727 29.4607 0.148315 28.3271 0.148315H22.5443C21.4107 0.148315 20.4917 1.06727 20.4917 2.2009V4.41261C20.4917 5.29694 19.9251 6.0816 19.0856 6.35959C18.1504 6.66925 17.2456 7.04549 16.3766 7.4826C15.5852 7.8807 14.6285 7.72832 14.002 7.10197L12.4372 5.53715C11.6356 4.73554 10.336 4.73554 9.53441 5.53715L5.44558 9.62619C4.64397 10.4278 4.64397 11.7274 5.44558 12.529L7.0104 14.0938C7.63675 14.7203 7.78913 15.677 7.39103 16.4684C6.95392 17.3373 6.57768 18.2422 6.26802 19.1774C6.07153 19.7707 5.62206 20.2276 5.06321 20.4446C4.83127 20.5347 4.68257 20.6855 4.42317 20.6855H2.21146C1.07783 20.6855 0.158875 21.6045 0.158875 22.7381V28.3166C0.158875 29.4502 1.07783 30.3692 2.21146 30.3692H4.42317C5.3075 30.3692 6.09216 31.0379 6.37015 31.8774C6.67981 32.8126 7.05605 33.7174 7.49316 34.5864C7.89126 35.3778 7.73888 36.3345 7.11253 36.961L5.64984 38.5258C4.84823 39.3274 4.84823 40.627 5.64984 41.4286L9.53462 45.3134C10.3362 46.115 11.6358 46.115 12.4374 45.3134L14.0022 43.7486C14.6286 43.1221 15.5854 42.9698 16.3768 43.3679C17.2458 43.8051 18.3549 44.2834 19.2901 44.5931C20.1296 44.8711 20.6962 45.6557 20.6962 46.5401V48.7518C20.6962 49.8854 21.6151 50.8044 22.7488 50.8044H28.2251C29.3588 50.8044 30.2777 49.8854 30.2777 48.7518V46.5401C30.2777 46.2807 30.4286 46.132 30.5186 45.9C30.7357 45.3412 31.1927 44.8917 31.7859 44.6952C32.721 44.3856 33.6259 44.0093 34.4948 43.5722C35.2862 43.1741 36.243 43.3265 36.8694 43.9528L38.4342 45.5177C39.2359 46.3193 40.5354 46.3193 41.3371 45.5177L45.4261 41.4286C46.2277 40.627 46.2277 39.3274 45.4261 38.5258L43.8613 36.961C43.2349 36.3345 43.0825 35.3778 43.4806 34.5864C43.9177 33.7175 44.294 32.8126 44.6036 31.8774C44.8816 31.0379 45.6663 30.4713 46.5506 30.4713H48.7623C49.8959 30.4713 50.8148 29.5524 50.8148 28.4187V28.4187Z" fill="#B6C4CF"/>
<path d="M30.5188 45.9C30.4289 46.1318 30.3799 46.3831 30.3799 46.6425V48.8536C30.3799 49.9872 29.4607 50.9064 28.3271 50.9064H22.5445C21.4109 50.9064 20.4917 49.9872 20.4917 48.8536V46.6425C20.4917 45.758 19.9249 44.9727 19.0854 44.6949C18.1509 44.3854 17.2461 44.0096 16.377 43.5725C15.5855 43.1742 14.6285 43.3264 14.0025 43.9524L12.4379 45.517C11.6361 46.3187 10.336 46.3187 9.53433 45.517L5.44508 41.4288C4.64439 40.6271 4.64439 39.327 5.44508 38.5253L7.01072 36.9607C7.63677 36.3346 7.78894 35.3777 7.39064 34.5862C6.95353 33.717 6.57769 32.8122 6.26824 31.8777C5.99045 31.0382 5.20508 30.4714 4.32065 30.4714H2.10955C0.975923 30.4714 0.0567627 29.5522 0.0567627 28.4186V22.6361C0.0567627 21.5024 0.975923 20.5833 2.10955 20.5833H4.32065C4.58005 20.5833 4.83129 20.5342 5.06312 20.4444C5.06108 20.572 5.06006 20.7007 5.06006 20.8294C5.06006 34.6771 16.2861 45.9031 30.1337 45.9031C30.2624 45.9031 30.3911 45.902 30.5188 45.9V45.9Z" fill="#9FACBA"/>
<path d="M25.4358 42.3786C34.7425 42.3786 42.2871 34.834 42.2871 25.5273C42.2871 16.2206 34.7425 8.67606 25.4358 8.67606C16.1291 8.67606 8.58453 16.2206 8.58453 25.5273C8.58453 34.834 16.1291 42.3786 25.4358 42.3786Z" fill="#9FACBA"/>
<path d="M25.4358 38.8041C32.7683 38.8041 38.7125 32.8599 38.7125 25.5273C38.7125 18.1948 32.7683 12.2506 25.4358 12.2506C18.1032 12.2506 12.159 18.1948 12.159 25.5273C12.159 32.8599 18.1032 38.8041 25.4358 38.8041Z" fill="#F8F7F7"/>
</svg>
