<svg width="94" height="81" viewBox="0 0 94 81" fill="none" xmlns="http://www.w3.org/2000/svg">
<path d="M93.5333 61.8912C93.5333 71.9831 85.3522 80.1641 75.2604 80.1641L47.851 80.1641C45.0477 80.1641 42.7752 77.8916 42.7752 75.0883L42.7752 40.5728C42.7752 34.9662 47.3203 30.4212 52.9268 30.4212L88.4575 30.4212C91.2608 30.4212 93.5333 32.6937 93.5333 35.497L93.5333 61.8912Z" fill="#FFF1DA"/>
<path d="M24.0221 52.4069L22.1054 51.4894L10.7187 68.3255H23.4264L24.651 67.527V52.9832L24.0221 52.4069Z" fill="#407093"/>
<path d="M22.2787 51.5724L17.9692 49.5092H17.157L4.9713 67.527L5.69676 68.3255H10.9482L22.2787 51.5724Z" fill="#365E7D"/>
<path d="M26.9387 67.5269H10.1353C9.37193 67.5269 8.75306 68.1456 8.75306 68.9091V70.6607C8.75306 71.4239 9.37179 72.0426 10.135 72.0427H26.9387C27.7021 72.0427 28.321 71.424 28.321 70.6607V68.9091C28.321 68.1456 27.7021 67.5269 26.9387 67.5269Z" fill="#4A80AA"/>
<path d="M9.03912 70.6606V68.9091C9.03912 68.1458 9.65799 67.5269 10.4213 67.5269H1.52066C0.757309 67.5269 0.138439 68.1456 0.138439 68.9091V70.6606C0.138439 71.424 0.757309 72.0427 1.52066 72.0427H10.4212C9.65785 72.0427 9.03912 71.424 9.03912 70.6606Z" fill="#407093"/>
<path d="M21.7003 41.5704C21.183 42.6374 20.8907 43.8338 20.8907 45.0994C20.8907 48.558 23.0564 51.5082 26.1045 52.6753C27.4132 52.2653 28.576 51.5257 29.4945 50.552V48.7847L21.7003 41.5704Z" fill="#4A80AA"/>
<path d="M21.0271 45.1271C21.0271 43.8908 21.313 42.7222 21.8192 41.6803L19.3278 39.3741H18.3168C16.788 40.8163 15.8323 42.8594 15.8323 45.127C15.8323 49.4953 19.3734 53.0364 23.7417 53.0364C24.6516 53.0364 25.5242 52.8803 26.3375 52.5973C23.2464 51.522 21.0271 48.5846 21.0271 45.1271Z" fill="#407093"/>
<path d="M66.9483 1.92022C65.6966 0.668602 63.6674 0.668602 62.4159 1.92022L59.3573 4.97876V5.36641L63.1748 9.34597L63.8897 9.51113L66.9481 6.45259C68.1999 5.20111 68.1999 3.17184 66.9483 1.92022Z" fill="#FFD086"/>
<path d="M67.7938 3.43304C67.6603 2.87899 67.3807 2.35283 66.9483 1.92022C65.6966 0.668602 63.6674 0.668602 62.4159 1.92022L59.3573 4.97876V5.36641L61.3813 7.47631C62.588 6.22067 63.786 4.98154 64.4021 4.36544C65.4292 3.33853 66.9292 3.33062 67.7938 3.43304Z" fill="#FFC365"/>
<path d="M56.4773 10.0675C56.4422 10.0675 56.4067 10.0657 56.371 10.0622L21.0267 6.58324C20.4373 6.52523 20.0066 6.00046 20.0646 5.41101C20.1226 4.82157 20.6477 4.39117 21.2368 4.44877L56.5811 7.92757C57.1704 7.98559 57.6013 8.51036 57.5432 9.0998C57.4887 9.65372 57.0222 10.0675 56.4773 10.0675Z" fill="#365E7D"/>
<path d="M31.249 16.6842C30.7734 16.6842 30.3388 16.3652 30.2125 15.8836C30.0622 15.3107 30.4049 14.7244 30.9777 14.5741L56.2045 7.95724C56.7773 7.8072 57.3637 8.1496 57.5139 8.72253C57.6642 9.29532 57.3216 9.88158 56.7487 10.0319L31.5219 16.6488C31.4306 16.6726 31.339 16.6842 31.249 16.6842Z" fill="#407093"/>
<path d="M63.3287 48.8322C62.7834 48.8322 62.3169 48.418 62.2626 47.864L58.8053 12.498C58.7477 11.9087 59.1788 11.3841 59.7683 11.3263C60.3577 11.2714 60.8822 11.7 60.9398 12.2894L64.3971 47.6554C64.4547 48.2447 64.0236 48.7693 63.4342 48.827C63.3988 48.8304 63.3635 48.8322 63.3287 48.8322Z" fill="#365E7D"/>
<path d="M53.1555 38.7937C53.0646 38.7937 52.9722 38.7819 52.88 38.7577C52.3075 38.6058 51.9665 38.0187 52.1183 37.4462L58.8326 12.122C58.9843 11.5493 59.5713 11.2089 60.1439 11.3601C60.7164 11.512 61.0575 12.0991 60.9056 12.6716L54.1913 37.9958C54.064 38.4763 53.63 38.7937 53.1555 38.7937Z" fill="#407093"/>
<path d="M56.2838 8.05136L59.3501 4.98503L63.8818 9.51677L60.8155 12.5831L56.2838 8.05136Z" fill="#FFC365"/>
<path d="M58.6126 10.3674C59.3496 9.59573 60.5005 8.39213 61.6136 7.23489L59.3575 4.9787L56.2906 8.04543L58.6126 10.3674Z" fill="#FFA90F"/>
<path d="M61.5058 14.3328C61.2314 14.3328 60.9569 14.228 60.7476 14.0187L54.85 8.12118C54.4311 7.70231 54.4311 7.02348 54.85 6.60447C55.2687 6.18588 55.9477 6.18588 56.3665 6.60447L62.2642 12.502C62.6831 12.9209 62.6831 13.5997 62.2642 14.0187C62.0547 14.2281 61.7804 14.3328 61.5058 14.3328Z" fill="#4A80AA"/>
<path d="M62.1979 50.7626L26.2908 14.544C21.5303 25.2912 20.7037 36.8282 24.2675 46.7769C34.11 55.6554 48.8129 57.0187 62.3484 51.4377L62.1979 50.7626Z" fill="#B5DCFF"/>
<path d="M26.4821 14.7369L18.2553 6.43875L17.4309 6.52008C11.6347 20.5773 13.3271 35.8947 23.1504 45.7181C23.7454 46.3131 24.3611 46.8777 24.995 47.4133C20.854 37.4764 21.527 25.6577 26.4821 14.7369Z" fill="#8BCAFF"/>
<path d="M65.4793 48.1882L29.0619 11.7708C28.7035 11.8261 28.3585 11.989 28.0826 12.2649L26.4986 13.8491C26.1584 14.1892 25.9892 14.6335 25.9843 15.0795L62.2863 51.3813C62.8261 51.921 63.7011 51.921 64.2409 51.3813L65.4795 50.1428C66.0191 49.6032 66.0191 48.728 65.4793 48.1882Z" fill="#DBEDFF"/>
<path d="M26.5532 13.8762L28.1042 12.3252C28.3899 12.0395 28.7506 11.876 29.1228 11.8318L20.6804 3.38938C20.1407 2.84962 19.2656 2.84962 18.7257 3.38938L17.4871 4.62795C16.9474 5.16771 16.9474 6.04279 17.4871 6.58255L26.0482 15.1436C26.0369 14.6861 26.2042 14.2252 26.5532 13.8762Z" fill="#B5DCFF"/>
</svg>
