<svg width="37" height="37" viewBox="0 0 37 37" fill="none" xmlns="http://www.w3.org/2000/svg">
<circle cx="18.6157" cy="18.3914" r="18.2729" fill="#F5F5F5"/>
<path d="M24.04 13.5618L17.6267 19.9988C17.5532 19.9562 17.4759 19.9205 17.3958 19.8922L13.1617 18.4591C13.0337 18.4271 12.92 18.3531 12.8388 18.249C12.7576 18.145 12.7135 18.0167 12.7135 17.8847C12.7135 17.7527 12.7576 17.6245 12.8388 17.5204C12.92 17.4164 13.0337 17.3424 13.1617 17.3103L23.6669 13.5737C23.7356 13.5504 23.8076 13.5384 23.8801 13.5382C23.9344 13.5373 23.9884 13.5453 24.04 13.5618Z" fill="#84829A"/>
<path d="M24.4488 14.3554L20.7121 24.8724C20.6709 24.995 20.5907 25.1007 20.4838 25.1734C20.3769 25.2462 20.2491 25.2819 20.1199 25.2751C19.9893 25.2811 19.8604 25.2437 19.7533 25.1687C19.6461 25.0937 19.5668 24.9854 19.5278 24.8606L18.1184 20.6265C18.0901 20.5464 18.0544 20.4691 18.0118 20.3956L24.4606 13.9823C24.497 14.1047 24.4928 14.2355 24.4488 14.3554Z" fill="#84829A"/>
</svg>
