<svg width="376" height="12" viewBox="0 0 376 12" fill="none" xmlns="http://www.w3.org/2000/svg">
<path d="M55.2244 -3.59677L56.1681 -3.76284L54.3411 -3.98911L55.2218 -4.16299C56.102 -4.1647 57.2379 -3.91329 57.8608 -4.05144C57.9389 -4.18324 56.9812 -4.22189 56.7385 -4.32576C56.5239 -4.43236 56.3492 -4.53841 56.2162 -4.64264C56.6955 -4.64329 57.2221 -4.61992 57.7646 -4.57389C58.4941 -4.49814 59.2102 -4.46266 59.834 -4.47137C61.1092 -4.45491 62.3418 -4.48064 63.7284 -4.48113L63.2725 -4.79594L65.0584 -4.72854C65.2474 -4.70513 65.4738 -4.74474 65.6594 -4.7156C67.2039 -4.46896 67.8616 -4.60893 68.6071 -4.72574C68.7601 -4.75582 68.9441 -4.77854 69.1543 -4.79329C71.2194 -4.74051 73.0764 -4.39365 74.934 -4.21894C75.2834 -4.17387 75.6183 -4.1156 75.9149 -4.04825C76.5598 -3.91757 77.2778 -3.8116 78.0033 -3.74001C78.7288 -3.66843 79.4385 -3.63353 80.0677 -3.63848C81.4589 -3.64659 83.029 -3.56441 84.6263 -3.3999C85.1012 -3.34551 85.5767 -3.31025 86.0225 -3.29633C86.4684 -3.28242 86.8749 -3.29016 87.2158 -3.31907L88.2945 -3.14241C88.7648 -3.21747 89.3601 -3.25991 90.0444 -3.26714C90.7288 -3.27437 91.4878 -3.24626 92.2755 -3.1845C93.1149 -3.11745 93.9679 -3.07331 94.8388 -3.00236C96.6379 -2.8672 98.3899 -2.78697 100.04 -2.76415C102.497 -2.68747 104.897 -2.63005 107.375 -2.53228C108.926 -2.4864 110.437 -2.46362 111.899 -2.46404C113.651 -2.45035 115.545 -2.35961 117.489 -2.19619C117.394 -2.03574 116.541 -2.07987 115.968 -2.08316C114.12 -2.1029 112.229 -2.16483 110.329 -2.20956C109.472 -2.2266 108.639 -2.23116 107.834 -2.22321C106.489 -2.22485 105.072 -2.26224 103.606 -2.33475C101.291 -2.41191 99.0483 -2.44481 96.9021 -2.4331C96.7338 -2.42613 96.5794 -2.41432 96.4416 -2.39786C96.4127 -2.38395 96.4068 -2.36651 96.4243 -2.34723C96.4419 -2.32794 96.4824 -2.30745 96.542 -2.28773C96.6016 -2.26801 96.6782 -2.24971 96.7645 -2.23458C96.8509 -2.21945 96.9442 -2.20799 97.0353 -2.20132C97.8858 -2.09598 98.7993 -1.98284 99.6029 -1.96943C99.6339 -1.96832 99.667 -1.96565 99.6996 -1.9616C99.7323 -1.95755 99.7638 -1.95223 99.7918 -1.94603C101.587 -1.72364 103.068 -1.76791 104.469 -1.73585C106.794 -1.64377 109.037 -1.60506 111.163 -1.6203C111.484 -1.621 111.831 -1.60919 112.19 -1.58531C114.415 -1.49138 116.497 -1.48768 118.338 -1.57438C119.095 -1.59743 119.8 -1.64547 120.614 -1.64926C121.115 -1.65425 121.552 -1.68485 121.898 -1.73925C122.244 -1.79364 122.492 -1.8707 122.627 -1.96578C122.97 -1.91726 123.317 -1.87418 123.667 -1.83704C123.875 -1.81584 124.075 -1.81075 124.227 -1.82281C124.378 -1.83488 124.47 -1.86319 124.483 -1.90203C124.547 -2.01091 124.072 -2.0637 123.659 -2.10869C123.909 -2.13291 124.19 -2.14767 124.496 -2.15259C126.221 -2.18382 128.069 -2.16139 130.002 -2.0858C131.502 -1.99229 132.702 -2.0774 134.279 -1.94353C134.468 -1.92012 134.625 -1.9561 134.799 -1.96524C135.255 -2.01168 135.821 -2.02384 136.45 -2.00067C137.078 -1.97749 137.75 -1.91968 138.406 -1.83224C139.23 -2.08085 140.995 -1.80689 142.301 -1.78654C142.702 -1.66315 142.24 -1.68339 142.22 -1.64901C142.2 -1.61463 142.22 -1.64901 142.062 -1.66852C140.754 -1.48682 138.966 -1.44161 136.948 -1.53925C136.574 -1.53742 136.218 -1.52804 135.883 -1.5112C135.375 -1.48723 134.803 -1.48731 134.192 -1.51143C133.524 -1.52833 132.911 -1.51685 132.38 -1.47753C132.075 -1.477 131.817 -1.45733 131.63 -1.42033C131.442 -1.38333 131.332 -1.33019 131.308 -1.26586C131.511 -1.21709 131.736 -1.17261 131.974 -1.13418C133.219 -0.983604 134.462 -0.92398 135.459 -0.967044C137.194 -1.04131 139.255 -0.982793 141.099 -1.0128C142.345 -1.02681 143.671 -1.00502 145.05 -0.947836C145.05 -0.947836 145.013 -0.884801 145.01 -0.87907C145.172 -0.852443 145.344 -0.831231 145.514 -0.816646C145.514 -0.816646 145.514 -0.816646 145.531 -0.845298C145.455 -0.872474 145.353 -0.897922 145.236 -0.918696L144.826 -0.969418C145.106 -0.984049 145.367 -1.0255 145.657 -1.00185C146.269 -0.958173 146.854 -0.940951 147.377 -0.951201C147.901 -0.961449 148.351 -0.998965 148.702 -1.06149C149.323 -1.14226 150.095 -1.18081 150.967 -1.17465C151.635 -1.1857 152.28 -1.20651 152.897 -1.23697C152.897 -1.23697 152.938 -1.30573 153.231 -1.34328C152.955 -1.38723 152.667 -1.42289 152.38 -1.44862C151.132 -1.51091 149.881 -1.56748 148.654 -1.60869C148.202 -1.61195 147.777 -1.6027 147.387 -1.58112C146.306 -1.55355 145.094 -1.58247 143.819 -1.66621C143.819 -1.66621 143.567 -1.69742 143.441 -1.71302C143.802 -1.86519 145.034 -1.71877 145.535 -1.82278C145.839 -1.82205 146.374 -1.81119 146.356 -1.83801C146.315 -1.87374 146.31 -1.90706 146.343 -1.93558C146.375 -1.9641 146.444 -1.98711 146.544 -2.00296C146.644 -2.01881 146.772 -2.02711 146.92 -2.02726C147.069 -2.02741 147.233 -2.01941 147.401 -2.00384C148.804 -1.92143 150.128 -1.90198 151.289 -1.94668C151.729 -1.94753 152.222 -1.92339 152.659 -1.91852C152.926 -1.91169 153.17 -1.91695 153.378 -1.93401C154.435 -2.05792 155.856 -2.07196 157.425 -1.97402C158.184 -1.93953 158.894 -1.93718 159.518 -1.96709C159.961 -1.97367 160.148 -1.88906 160.463 -1.85005L161.802 -1.77031L160.078 -1.65777C160.442 -1.41587 160.733 -1.33674 161.334 -1.32382C162.211 -1.3042 163.065 -1.29703 163.891 -1.30237C164.502 -1.30664 165.008 -1.36091 165.834 -1.27093C165.98 -1.2563 166.12 -1.25191 166.232 -1.2585C167.202 -1.34471 168.37 -1.36801 169.654 -1.3268C170.322 -1.48396 171.453 -1.33777 172.499 -1.22049C172.839 -1.33827 172.227 -1.38948 171.863 -1.45922C172.739 -1.4552 173.623 -1.46264 174.528 -1.44899C174.8 -1.45619 175.111 -1.44676 175.436 -1.42141C175.762 -1.39607 176.092 -1.35553 176.402 -1.30294C176.553 -1.26878 176.736 -1.24332 176.911 -1.23186C177.087 -1.22039 177.243 -1.2238 177.346 -1.24137C177.817 -1.2938 178.569 -1.24991 178.958 -1.33697C179.097 -1.35717 179.294 -1.36065 179.515 -1.3468C179.736 -1.33295 179.967 -1.30267 180.165 -1.26137C179.947 -1.24745 179.752 -1.22608 179.586 -1.19773C178.99 -1.10543 179.206 -0.9557 179.957 -0.739652C181.116 -0.755998 182.3 -0.75698 183.375 -0.802221C183.975 -0.841473 184.708 -0.832625 185.494 -0.776672C186.279 -0.720717 187.084 -0.619875 187.82 -0.485486C188.086 -0.433745 188.39 -0.398356 188.671 -0.38634C188.952 -0.374323 189.19 -0.386562 189.337 -0.420634C189.429 -0.459746 189.458 -0.508922 189.422 -0.563897L188.666 -0.657526C188.666 -0.657526 188.696 -0.709101 188.703 -0.720562L189.793 -0.733258C190.369 -0.7357 190.97 -0.722775 191.515 -0.729118C192.315 -0.760814 193.228 -0.748198 194.198 -0.692061C195.092 -0.634126 195.971 -0.591087 196.826 -0.563327C197.655 -0.534557 198.257 -0.638325 199.046 -0.657472C199.643 -0.67191 200.299 -0.661288 200.989 -0.62602C202.181 -0.563349 203.276 -0.567295 204.174 -0.637497C205.214 -0.281115 205.721 -0.224429 206.694 -0.325387L207.151 -0.354894L207.275 -0.278085L207.624 -0.296374C208.276 -0.313936 208.929 -0.331489 209.61 -0.339418C210.556 -0.309502 211.577 -0.22335 212.573 -0.0893728C212.762 -0.0659645 213.018 0.015 213.183 0.0785221C213.349 0.142046 213.708 0.334193 213.972 0.459164C213.68 0.552194 213.357 0.641319 213.125 0.747883C213.101 0.766028 213.103 0.787555 213.13 0.810731C213.157 0.833908 213.209 0.858092 213.281 0.881333C213.352 0.904575 213.442 0.926226 213.543 0.944553C213.644 0.962881 213.754 0.977371 213.862 0.986856C214.074 1.00738 214.283 1.02082 214.481 1.0266C215.456 1.03422 216.391 1.02239 217.275 0.99123C217.598 0.950705 218.04 0.945324 218.53 0.975955C219.02 1.00659 219.531 1.07147 219.981 1.16032C221.138 1.10167 222.481 1.11274 223.918 1.19273C225.44 1.13518 227.275 1.23331 228.698 1.11431C228.664 1.17161 228.809 1.26952 229.013 1.32548C229.335 1.41044 229.7 1.48892 230.092 1.55762L233.095 1.68343C233.206 1.75344 233.345 1.82422 233.51 1.89485C233.624 1.95069 233.822 2.00502 234.062 2.04631C234.303 2.08759 234.567 2.1126 234.8 2.11602C235.397 2.13467 235.899 2.08613 236.61 2.19879C235.51 2.31186 234.03 2.30289 232.432 2.17346C230.931 2.07608 229.486 2.03 228.151 2.03692C227.711 2.03778 227.132 2.04594 226.993 2.10873C226.685 2.28589 225.888 2.26103 224.959 2.23202C224.229 2.19919 223.561 2.20566 223.011 2.25089C222.461 2.29613 222.045 2.37884 221.795 2.49222C221.731 2.6011 221.879 2.69327 222.519 2.75411L225.181 2.99771C225.575 2.96365 225.948 2.92369 226.3 2.87797C226.893 2.81679 227.624 2.79788 228.436 2.82272C229.248 2.84757 230.12 2.91549 230.983 3.02121C231.424 3.07583 231.865 3.13045 232.186 3.10253C232.468 3.07077 232.727 3.03304 232.963 2.98961C233.011 2.96092 233.03 2.92803 233.021 2.8922C233.191 2.90824 233.36 2.92929 233.525 2.95462C234.836 3.25235 235.856 3.24333 236.784 3.16139C237.035 3.13712 237.226 3.09933 237.481 3.06933C237.735 3.03934 237.825 3.0013 238.056 3.01141C239.895 3.10382 240.43 2.77035 241.981 2.7779C242.057 2.76467 242.104 2.74514 242.119 2.7211C242.133 2.69707 242.114 2.66931 242.063 2.64037C241.954 2.61448 241.827 2.59234 241.695 2.57597C241.563 2.55961 241.43 2.54956 241.307 2.54674C240.594 2.50685 239.963 2.52224 239.523 2.59027C239.211 2.61856 238.881 2.6414 238.535 2.65868L236.991 2.18439C238.495 2.2228 239.918 2.21723 241.227 2.16779C241.513 2.14169 241.996 2.18303 242.397 2.18973L245.353 2.22361C245.961 2.22507 246.48 2.14789 247.324 2.32017C247.324 2.32017 247.884 2.34637 248.033 2.32187C248.183 2.29736 248.848 2.14592 249.244 2.04741C249.702 2.07337 250.336 2.14568 250.622 2.11958C251.122 2.05624 251.555 1.97582 251.913 1.87975L253.697 2.00836C253.693 2.12852 253.626 2.24179 253.497 2.34646C253.356 2.44746 253.358 2.56807 253.504 2.69842C253.65 2.82876 253.936 2.96514 254.337 3.09642L256.088 3.7931C256.375 3.83912 256.681 3.86968 256.965 3.88063C257.249 3.89158 257.497 3.88238 257.675 3.85429C258.435 3.77003 259.286 3.70322 260.046 3.61896C261.022 3.73991 260.767 3.94206 261.476 4.11592L263.775 4.40072C264.122 4.67127 264.476 4.93036 263.405 5.02535C263.192 5.04205 263.334 5.14569 263.139 5.18922C263.967 5.39015 264.879 5.44782 265.72 5.57035C266.05 5.65949 266.326 5.75412 266.535 5.84967C266.763 5.99386 267.228 6.14029 267.829 6.25733C268.43 6.37438 269.119 6.45265 269.748 6.47525C270.802 6.54769 271.881 6.65838 272.935 6.80235C273.296 6.85244 273.666 6.88853 274.022 6.9082C274.378 6.92786 274.711 6.93063 274.998 6.91635C276.022 6.88925 276.889 6.80595 277.544 6.67187C278.191 6.55774 279.061 6.50066 280.077 6.50579C281.809 6.72037 282.154 7.05213 283.199 7.34157L281.384 7.38121C281.316 7.49582 281.433 7.63957 280.69 7.6397C279.946 7.63982 280.321 7.74784 280.56 7.85745C280.645 7.91272 280.809 7.96929 281.027 8.01757C281.245 8.06585 281.503 8.10288 281.756 8.12239L283.299 8.25809C283.846 8.30988 284.375 8.33089 284.83 8.31882C285.284 8.30675 285.646 8.26207 285.875 8.18967C286.138 8.12076 286.5 8.07346 286.938 8.05068C287.497 7.99317 287.958 7.90904 288.303 7.80145L290.481 7.94824C290.576 7.84105 290.877 7.76503 291.334 7.73301C291.79 7.701 292.374 7.71495 292.986 7.77253L294.455 7.86214C296.088 7.95979 296.447 7.92431 296.931 7.62132L294.98 7.09059C295.267 6.94781 295.544 6.82223 295.822 6.69664C295.336 6.5212 294.688 6.35597 293.942 6.21773C293.246 6.0688 292.53 5.92471 291.797 5.78601C291.002 5.64446 290.161 5.52193 289.174 5.3627C289.002 5.31064 288.752 5.21822 288.433 5.12946C288.113 5.04324 287.779 4.9588 287.433 4.87647C287.501 4.76186 287.562 4.65871 287.438 4.52642C288.047 4.56652 288.676 4.63827 289.268 4.73519C289.859 4.83212 290.396 4.95119 290.828 5.08165C290.9 5.10481 290.99 5.12647 291.089 5.14519C291.189 5.16392 291.297 5.17925 291.406 5.19017C292.476 5.26734 292.985 5.43498 293.506 5.6409C293.857 5.74586 294.31 5.83854 294.802 5.90608C295.748 6.02313 296.672 6.17455 297.576 6.30489C297.852 6.34841 298.139 6.38401 298.426 6.41022C299.371 6.49344 300.322 6.61118 301.23 6.75746C301.526 6.79439 301.81 6.84366 302.059 6.90116C302.307 6.95867 302.512 7.02272 302.657 7.08798C302.43 7.16091 302.307 7.25237 302.294 7.35683C302.254 7.42559 302.916 7.56301 303.229 7.66323C303.541 7.76345 302.926 7.71797 302.716 7.72894C301.858 7.75174 301.698 7.79344 302.208 8.01656C302.378 8.08669 302.491 8.15706 302.539 8.22332C302.587 8.28958 302.569 8.3503 302.487 8.40173C302.361 8.61376 301.987 8.78885 301.728 8.99674C302.122 9.13158 302.781 9.27471 302.85 9.44321C302.884 9.48052 302.957 9.51992 303.062 9.55854C303.168 9.59718 303.304 9.63407 303.462 9.66657C303.876 9.73645 304.252 9.82047 304.561 9.9121C304.871 10.0037 305.105 10.1005 305.245 10.195C305.291 10.2341 305.402 10.2754 305.557 10.3105C305.711 10.3456 305.898 10.3721 306.079 10.3845C306.296 10.3997 306.49 10.3969 306.621 10.3765C306.753 10.3562 306.812 10.3199 306.786 10.2752C306.793 10.191 306.766 10.1033 306.705 10.013C306.743 9.94992 306.78 9.88688 306.638 9.78325C307.285 9.81885 307.963 9.89251 308.599 9.99623C309.235 10.0999 309.805 10.2297 310.246 10.3715C310.734 10.5181 311.184 10.6722 311.724 10.8437C311.609 11.0386 311.609 11.0386 312.76 11.378L318.896 11.5228L320.15 11.7458C321.32 11.9399 321.599 11.9253 322.338 11.8199L322.836 11.7216C323.875 11.8504 325.072 11.9986 325.728 11.7477C325.937 11.9089 326.074 11.9628 326.025 11.9875C325.71 12.2277 325.166 12.4325 324.415 12.5939C324.224 12.6317 324.088 12.6887 323.865 12.7226C323.145 12.912 322.974 13.201 323.386 13.5306C323.592 13.6764 323.891 13.8254 324.274 13.9727C323.706 14.1813 322.954 14.3551 322.04 14.4896C321.265 14.5939 320.626 14.732 320.14 14.9001C319.704 15.0694 319.054 15.1979 318.226 15.2781C317.806 15.3125 317.499 15.3783 317.335 15.4692C317.282 15.7136 317.389 15.9746 317.652 16.2466C317.701 16.3294 317.842 16.4186 318.066 16.5071C318.289 16.5956 318.588 16.6809 318.939 16.7566C318.939 16.7566 319.107 16.8144 319.188 16.849C319.251 17.1445 318.992 17.4061 318.429 17.6161C318.337 17.6755 318.148 17.7188 317.885 17.7415C317.621 17.7641 317.292 17.7651 316.933 17.7445C316.175 17.7121 315.465 17.7104 314.732 17.6933C313.941 17.6683 313.244 17.6929 312.713 17.7647C312.183 17.8365 311.839 17.9527 311.717 18.1012C311.709 18.1432 311.685 18.1834 311.646 18.2215C311.623 18.2412 311.611 18.2623 311.609 18.2846L313.286 18.763L311.376 18.9631C311.26 19.1579 312.174 19.2711 312.63 19.4137L312.345 19.4953C311.979 19.5422 311.489 19.4569 311.044 19.408L310.603 19.3534L310.549 19.4451C310.272 19.5706 309.27 19.4343 308.877 19.5271C308.484 19.6199 308.762 19.722 309.347 19.819C309.753 19.8913 310.19 19.9484 310.625 19.9863C311.059 20.0241 311.48 20.0416 311.855 20.0374C312.079 20.0268 312.265 20.0038 312.402 19.9698C313.196 19.8244 314.073 19.6987 315.026 19.5935C315.756 19.4996 316.67 19.4574 317.703 19.4699C318.006 19.4619 318.371 19.4821 318.734 19.5271C319.097 19.572 319.434 19.6388 319.687 19.7157L320.222 19.7265C320.222 19.7265 320.513 19.8057 320.471 19.8189C320.263 20.0573 320.495 20.347 321.131 20.645L320.573 20.6743C319.776 20.6494 320.279 20.8285 320.158 20.9181C319.592 20.9034 318.857 20.8308 318.587 20.9449L318.185 20.9382L318.342 20.9577L318.534 20.92L319.281 21.0863C318.925 21.116 318.667 21.1517 318.353 21.1682C318.179 21.1821 318.041 21.2062 317.946 21.2388C317.851 21.2714 317.802 21.312 317.801 21.3581C317.8 21.4291 317.706 21.4891 317.526 21.5326C317.347 21.576 317.088 21.6014 316.774 21.6063C316.401 21.6092 316.186 21.6871 315.966 21.7153L316.91 22.1766C316.91 22.1766 316.437 22.1181 316.694 22.1991L316.728 22.1418L317.302 22.256C317.716 22.3565 318.006 22.3801 318.253 22.3061C318.5 22.2321 318.442 22.3295 318.561 22.3011C318.516 22.3756 318.248 22.4285 318.019 22.4739C317.753 22.5098 317.454 22.5367 317.126 22.554C317.711 22.8787 317.739 22.8883 316.875 22.9781C316.01 23.0678 316.305 23.1967 315.583 23.2179C314.86 23.2391 315.678 23.4572 316.16 23.4986C316.518 23.5256 316.883 23.5684 317.229 23.624C317.576 23.6797 317.896 23.7469 318.167 23.8209L318.018 24.0731C317.805 24.053 317.593 24.0267 317.388 23.995C316.69 23.8594 316.056 23.7317 315.432 23.8143L315.725 24.0044L313.554 23.9017C313.608 24.0447 313.937 24.2067 314.47 24.3534C314.388 24.4354 314.337 24.5215 314.317 24.6113C314.28 24.6743 314.066 24.6355 313.927 24.6428C313.429 24.6552 313.02 24.6993 312.735 24.7714C312.451 24.8434 312.3 24.9411 312.296 25.0559C312.238 25.1533 312.999 25.3522 313.477 25.3438C314.671 25.3587 315.961 25.4287 317.278 25.5499C318.081 25.5634 318.199 25.3073 319.519 25.4769C319.543 25.5948 319.372 25.691 319.031 25.7509C318.691 25.8109 318.199 25.8313 317.631 25.809C317.95 26.0699 319.739 26.1316 319.814 26.4054C319.368 26.3877 318.892 26.3439 318.433 26.2784C317.974 26.2129 317.547 26.1279 317.195 26.0318C317.119 26.0081 317.024 25.9863 316.917 25.9685C316.811 25.9507 316.698 25.9374 316.588 25.9299C316.477 25.9224 316.374 25.9209 316.287 25.9255C316.2 25.9302 316.132 25.9408 316.09 25.9564C316.336 26.0546 316.607 26.1681 316.916 26.2741C317.225 26.38 317.299 26.4261 317.523 26.4477C319.193 26.6544 319.982 27.0351 321.425 27.2815C321.803 27.3283 321.847 27.4815 321.519 27.4654C321.206 27.4492 320.923 27.4525 320.7 27.4749C320.478 27.4974 320.326 27.5381 320.26 27.5924C320.016 27.6564 319.713 27.7078 319.358 27.7452C320.836 28.1333 322.6 28.4746 324.484 28.7369C324.841 28.7888 325.214 28.8199 325.548 28.8255C326.602 28.822 327.721 28.8491 328.881 28.9062C329.293 28.9215 329.673 28.9185 330.002 28.8974C331.081 28.8465 331.935 28.9461 332.711 29.233L333.997 29.6875C333.953 29.762 333.734 29.8456 333.565 29.96L334.572 30.2015L342.295 29.608L343.834 30.1492L346.054 30.1105C346.224 30.1257 346.395 30.1468 346.558 30.1729C347.005 30.3328 347.353 30.4867 347.838 30.6389C348.322 30.7912 349.192 30.8067 349.796 30.986C350.4 31.1654 351.007 31.1668 351.757 31.2719C351.825 31.4122 351.75 31.5391 351.536 31.6444C351.465 31.7648 351.082 31.8404 351.014 31.955C351.019 32.0705 350.875 32.1692 350.596 32.242C350.317 32.3148 349.91 32.3595 349.414 32.372C348.02 32.6232 346.341 32.8047 344.429 32.9109C344.26 32.9187 344.121 32.9359 344.019 32.9613C343.916 32.9867 343.853 33.0199 343.834 33.0587C343.834 33.1709 343.705 33.2683 343.456 33.3438C343.206 33.4193 342.843 33.471 342.392 33.4952C342.271 33.5001 342.181 33.5146 342.13 33.5366C341.959 33.5514 341.834 33.5789 341.767 33.6165C341.701 33.6541 341.695 33.7004 341.75 33.7512C341.804 33.8019 341.919 33.8552 342.081 33.906C342.243 33.9567 342.449 34.0033 342.677 34.041C343.008 34.102 343.345 34.1603 343.689 34.2156C343.669 34.25 343.327 34.2568 343.376 34.2876C343.509 34.3857 343.539 34.478 343.463 34.5572C343.386 34.6364 343.206 34.7002 342.937 34.7437L344.766 35.5362C345.883 35.6428 346.977 35.8265 347.841 36.0524C347.842 36.0899 347.791 36.1216 347.695 36.1442C347.599 36.1668 347.46 36.1795 347.292 36.1812C346.842 36.1992 346.416 36.2326 345.931 36.2525C345.634 36.2671 345.387 36.2977 345.204 36.3426C345.02 36.3875 344.905 36.4457 344.863 36.5139L345.94 36.8073C345.592 36.881 345.334 36.9167 345.105 36.9621C345.233 37.0551 345.454 37.1509 345.752 37.2422C346.05 37.3334 346.415 37.4177 346.821 37.4884C346.93 37.5029 347.041 37.5134 347.148 37.5193C347.255 37.5251 347.356 37.5262 347.444 37.5225C348.284 37.4174 349.261 37.5938 350.21 37.7606C351.16 37.9273 351.675 38.0281 352.376 38.1579L353.721 38.1707C354.06 38.2321 354.362 38.3048 354.604 38.3827C354.845 38.4607 355.019 38.5419 355.111 38.6197C355.037 38.7458 354.4 38.6792 354.019 38.6936C353.116 38.7753 351.93 38.763 350.659 38.6588C350.344 38.6198 350.019 38.6534 349.712 38.6584C349.049 38.6765 348.412 38.7044 347.803 38.7418C347.402 38.7761 347.027 38.818 346.68 38.8673C346.585 39.0278 348.037 39.146 347.21 39.2282C347.494 39.2633 347.6 39.3133 347.746 39.2945C348.68 39.395 349.601 39.443 350.403 39.4329C351.941 39.4051 353.686 39.4716 355.495 39.6268C357.448 39.7874 359.322 39.8509 360.964 39.8121C361.589 39.8079 362.288 39.8397 363.006 39.905C363.853 39.9961 364.695 40.0522 365.478 40.0697C365.737 40.0695 366.025 40.0845 366.32 40.1134C366.614 40.1424 366.906 40.1845 367.171 40.2364C367.147 40.2765 366.893 40.3065 366.949 40.3258C367.754 40.6223 368.077 40.933 369.318 41.2344C370.169 41.3397 371.145 41.4606 371.705 41.3147C372.265 41.1687 372.068 41.0458 370.965 40.6817C371.206 40.6755 371.495 40.6916 371.783 40.7272C372.071 40.7629 372.339 40.8158 372.54 40.8767L373.494 41.1487L374.354 41.409C374.276 41.5408 374.215 41.644 374.151 41.7529C374.05 41.8686 374.156 42.0087 374.454 42.1534C374.634 42.2323 374.791 42.3114 374.923 42.3898C375.458 42.7035 375.609 43.0012 375.36 43.2497C374.884 43.6075 374.225 43.9375 373.389 44.2359C372.507 44.5264 372.021 44.8906 371.292 45.2064C370.921 45.3504 370.471 45.4798 369.947 45.5934C368.953 45.8455 367.863 46.0858 366.865 46.3435C365.867 46.6013 364.742 46.7879 363.635 47.0014C361.988 47.2561 360.208 47.4773 358.306 47.6639C357.128 47.8256 355.919 47.9834 354.829 48.1682C353.541 48.3768 352.03 48.5287 350.334 48.6203C348.835 48.728 347.495 48.8839 346.339 49.0851C346.218 49.1069 346.122 49.1343 346.054 49.1667C345.843 49.3683 345.259 49.512 344.391 49.5759C344.443 49.6345 344.509 49.694 344.59 49.7543C344.709 49.8259 344.733 49.8933 344.659 49.9477C344.584 50.0021 344.415 50.041 344.173 50.0593C343.478 50.1116 342.901 50.1983 342.465 50.3154C342.306 50.3449 342.206 50.3875 342.176 50.4394C342.145 50.4913 342.184 50.551 342.289 50.6134C342.382 50.6776 342.388 50.737 342.306 50.7839C342.224 50.8307 342.057 50.8629 341.829 50.8762C341.241 50.9395 340.612 50.9911 339.945 51.0305C338.527 51.1172 336.879 51.1223 335.101 51.0456C334.912 51.0222 334.721 51.06 334.5 51.0327C333.243 50.944 332.075 50.9339 331.136 51.0036C330.036 51.0335 328.887 51.0326 327.728 51.049C326.053 51.0471 324.508 51.1019 323.134 51.212C321.568 51.1164 320.684 51.296 319.36 51.3043C318.138 51.327 316.979 51.3747 315.894 51.4471C314.146 51.5443 312.404 51.63 310.681 51.7426C309.065 51.7992 307.576 51.9014 306.24 52.0475C305.727 52.1132 304.804 52.0173 304.453 52.1523C304.103 52.2872 303.401 52.2741 302.832 52.3205L301.039 52.4367C300.73 52.4639 300.391 52.4817 300.027 52.4898C298.361 52.5049 297.204 52.6877 295.658 52.7299L295.5 52.7104C292.751 52.9859 289.607 53.1432 286.161 53.1776C284.148 53.2665 281.947 53.2708 279.811 53.3384C279.299 53.4596 278.099 53.317 277.458 53.4284C276.817 53.5397 275.775 53.4721 274.952 53.4931C274.128 53.5141 273.322 53.5619 272.442 53.5636C271.677 53.567 271.031 53.618 270.561 53.7121C269.491 53.8688 268.188 53.9634 266.71 53.9917C264.755 54.0387 262.905 54.1356 260.918 54.1232C260.944 54.2344 260.821 54.3295 260.56 54.3988C260.299 54.4681 259.91 54.5091 259.433 54.5175C257.307 54.5679 255.377 54.6857 253.223 54.7264L252.647 54.7288L246.204 54.8167C244.468 54.8354 242.796 54.862 241.025 54.8827C240.364 54.8007 240.345 54.946 239.887 54.9201C239.76 54.849 239.61 54.818 239.383 54.8577L239.332 54.9436L231.979 55.0847C229.099 55.1786 226.071 55.2148 222.921 55.193C222.173 55.2042 221.475 55.2352 220.837 55.2856C220.246 55.3053 219.631 55.3153 218.993 55.3156C218.132 55.2972 217.29 55.2894 216.471 55.2923C214.317 55.3331 212.057 55.3238 209.699 55.3086C207.341 55.2934 205.554 55.3426 203.455 55.3472C202.033 55.3495 200.618 55.3403 199.148 55.3119C198.445 55.2988 197.581 55.2164 196.854 55.1878C196.127 55.1593 195.89 55.1606 195.793 55.2101C195.474 55.349 194.679 55.2629 194.044 55.2519C192.803 55.2336 192.628 55.1872 192.297 54.8326L193.821 54.7138C194.195 54.6759 194.664 54.6677 195.184 54.6901C195.704 54.7125 196.257 54.7646 196.789 54.8414C196.998 54.8745 197.217 54.9003 197.434 54.9176C197.65 54.9349 197.859 54.9432 198.048 54.942C199.584 54.917 201.099 54.8709 202.576 54.8324L202.792 54.81L202.811 54.4924C202.617 54.462 202.415 54.437 202.213 54.4183L194.812 54.2399C193.114 54.1956 191.352 54.0881 189.685 54.0477C188.019 54.0074 187.12 53.9823 185.827 53.939C185.282 53.9136 184.726 53.8797 184.163 53.8375C184.196 53.8068 184.216 53.7742 184.221 53.74C184.251 53.6885 184.292 53.6197 184.054 53.5656C183.794 53.4888 183.446 53.4238 183.08 53.3834C182.735 53.3571 182.401 53.3427 182.091 53.3409C180.589 53.3198 178.877 53.1585 177.319 52.8914L176.77 53.0756C174.425 52.982 172.045 52.8902 169.595 52.802C169.104 52.7773 168.59 52.7283 168.091 52.6588C167.555 52.5924 167.064 52.4516 166.5 52.3757C165.943 52.3216 165.389 52.2798 164.849 52.2512C164.997 52.2038 165.19 52.1656 165.424 52.1378C165.654 52.1275 165.821 52.0976 165.903 52.0524C165.984 52.0072 165.975 51.9491 165.877 51.8864C165.704 51.7789 165.629 51.6773 166.01 51.6629C166.361 51.6369 166.614 51.5826 166.737 51.5063C166.86 51.43 166.849 51.3349 166.704 51.2322C166.641 51.1722 166.597 51.1133 166.572 51.056L166.415 51.0364C165.898 50.8248 164.859 50.7515 164.116 50.5795C163.764 50.5301 163.4 50.5023 163.081 50.5005C162.256 50.466 161.452 50.4526 160.599 50.4084C160.192 50.3882 159.766 50.3501 159.347 50.2964C158.748 50.2223 158.685 50.2145 158.342 49.9382C158.883 49.941 159.312 49.898 159.558 49.8163C159.803 49.7346 159.85 49.6193 159.69 49.49C159.248 49.2077 158.782 48.9101 156.767 48.7159C157.425 48.7035 158.059 48.6814 158.666 48.6497C158.842 48.6427 158.975 48.6213 159.045 48.5885C159.116 48.5557 159.122 48.5129 159.061 48.466C159.001 48.419 158.877 48.3701 158.707 48.3258C158.537 48.2814 158.329 48.2438 158.11 48.2179C157.048 48.0613 155.938 47.9579 154.906 47.9195C154.036 47.904 153.25 47.9174 152.234 47.9207L151.037 47.7725C151.057 47.7381 150.882 47.6918 150.927 47.6727C151.235 47.4956 151.574 47.3223 151.924 47.1319C151.372 47.0318 150.895 46.9103 150.547 46.7812C150.199 46.6521 149.994 46.5208 149.956 46.4022C149.926 46.3664 149.935 46.3338 149.98 46.3064C150.026 46.2791 150.107 46.2578 150.218 46.244C150.535 46.2199 150.779 46.1751 150.933 46.1131C151.087 46.0511 151.146 45.9736 151.106 45.8865L150.179 45.5687C147.374 45.3499 144.618 45.1963 141.963 45.1109L139.566 45.0477C139.278 44.9629 139.369 44.9248 139.641 44.9217C139.913 44.9185 140.679 44.9395 141.213 44.9503C141.675 44.9655 142.085 44.9529 142.404 44.9138C142.724 44.8746 142.941 44.8103 143.036 44.7271L142.237 44.3636C142.278 44.2949 142.336 44.1974 142.772 44.2023C143.071 44.1932 143.291 44.1579 143.398 44.1019C143.505 44.046 143.492 43.9727 143.361 43.8938C143.342 43.8365 143.373 43.7842 143.453 43.7391C144.099 43.733 144.741 43.7326 145.328 43.713C145.601 43.7062 145.832 43.6841 146.005 43.6482C146.178 43.6123 146.289 43.5635 146.33 43.505C146.352 43.448 146.302 43.3833 146.183 43.3163C146.064 43.2492 145.88 43.1816 145.646 43.1189C144.729 43.0436 143.888 43.0457 143.309 43.1247C143.103 43.1857 142.771 43.2199 142.359 43.2226C141.947 43.2254 141.473 43.1967 141.001 43.1402C140.46 43.0751 139.92 43.0477 139.477 43.0627C139.034 43.0778 138.718 43.1344 138.585 43.2224C138.03 43.1905 137.537 43.1663 137.051 43.1307C136.477 43.0857 135.935 43.0738 135.482 43.0964C134.757 43.1138 133.977 43.1081 133.159 43.0793C130.8 43.0086 128.438 42.9436 126.153 42.919C125.549 42.9118 125.025 42.9393 124.428 42.9206C123.83 42.9019 123.356 42.9601 122.61 42.8493C122.468 42.8322 122.325 42.8214 122.192 42.8177C122.059 42.8141 121.941 42.8177 121.845 42.8283C120.53 42.923 118.99 42.9415 117.316 42.8825C115.021 42.8751 112.642 42.8387 110.344 42.837C109.669 42.8484 109.032 42.8743 108.438 42.9147C107.986 42.9395 107.513 42.9569 107.021 42.9668C106.644 42.9755 106.283 42.9554 106.345 43.0799C106.406 43.2044 105.843 43.1285 105.518 43.1066C104.4 43.0503 103.258 42.9727 102.105 42.8746C100.968 42.7676 99.8543 42.7071 98.829 42.6965C98.0885 42.6909 97.3242 42.7254 96.3748 42.5586C96.4122 42.4956 96.4495 42.4326 96.6579 42.3661C95.8845 42.1883 95.0011 42.0361 94.0808 41.9221C93.1606 41.8081 92.2299 41.7357 91.3659 41.7107L90.1796 41.3731C89.8868 41.334 89.5876 41.3059 89.3003 41.2904C89.0131 41.2749 88.7437 41.2724 88.5085 41.283C88.3269 41.2886 88.1058 41.2767 87.8859 41.2495C87.666 41.2223 87.4621 41.1815 87.3115 41.1347C87.0861 41.0753 86.8106 41.0244 86.5192 40.9883C86.2278 40.9522 85.9336 40.9326 85.6735 40.9318C84.855 40.8977 83.9821 40.8151 83.1442 40.6924C82.9274 40.6195 82.7922 40.5438 82.755 40.4747C82.7178 40.4056 82.7805 40.3461 82.9351 40.3036C83.1846 40.2286 83.3256 40.1336 83.3495 40.0245C83.3735 39.9154 83.28 39.7944 83.0746 39.6689C82.9697 39.5917 82.9354 39.5184 82.9739 39.4534C83.0125 39.3884 83.1229 39.333 83.2988 39.2906C83.9556 39.0952 83.7826 38.9876 82.719 38.6714C82.5463 38.6186 82.3377 38.5695 82.1067 38.5271C81.8757 38.4848 81.6273 38.4501 81.3771 38.4252C80.79 38.3752 80.2107 38.3385 79.6499 38.3159C79.3349 38.2769 79.0105 38.3105 78.647 38.2962C76.8296 38.2249 76.5656 38.0999 75.9812 37.8307L75.5553 37.6365C74.7619 37.4809 73.8935 37.3524 73.0126 37.2603C72.1316 37.1682 71.2602 37.1148 70.461 37.104C70.1432 37.1041 69.7784 37.0784 69.4224 37.0307C68.2636 36.8852 67.0892 36.7859 65.9771 36.7393C65.284 36.7134 64.5376 36.6423 63.8276 36.5348C63.1177 36.4272 62.4742 36.2876 61.9746 36.1329C61.5258 35.9935 60.9377 35.869 60.2921 35.7769C59.5361 35.6832 59.4679 35.5702 59.8925 35.4813C60.3171 35.3924 61.0277 35.2775 61.6583 35.1833C61.8777 35.1513 62.0142 35.1001 62.0526 35.0353C62.091 34.9706 62.0297 34.8949 61.8757 34.8166C61.7782 34.682 61.7631 34.5541 61.8308 34.4358C61.8667 34.3866 61.8435 34.3305 61.7626 34.2712C61.6818 34.2118 61.5453 34.1507 61.3622 34.0919C61.1792 34.0331 60.9539 33.9779 60.7016 33.9302C60.4492 33.8825 60.1756 33.8433 59.8993 33.8152C58.7338 33.6709 57.5998 33.5304 56.4105 33.4262C55.9122 33.3768 55.4146 33.3152 54.9299 33.2428C53.9384 33.063 52.8769 32.9148 51.8071 32.8068C51.2992 32.7587 50.8034 32.6729 50.4269 32.5682C49.2386 32.2868 48.1442 31.9904 47.1637 31.6843C46.9277 31.5891 46.6185 31.4965 46.2552 31.4124C45.892 31.3282 45.4826 31.2543 45.0529 31.1953C44.7063 31.1523 44.4253 31.056 44.1588 30.9923C43.9669 30.843 43.9485 30.7043 44.1054 30.5893C44.2623 30.4742 44.5894 30.3865 45.0558 30.3345C45.4984 30.2724 45.9128 30.2007 46.2957 30.1251C46.7568 30.0634 47.3043 30.0254 47.918 30.0123C48.6451 29.9774 49.1839 29.8834 49.4642 29.7425C47.4797 29.4967 45.5946 29.1402 43.8498 29.2317L42.5291 29.0066C42.5835 28.9149 42.631 28.8347 42.6752 28.7602C42.9925 28.6237 43.0939 28.4527 42.9706 28.2616C42.8678 28.1694 42.8788 28.085 43.0021 28.0171C43.1255 27.9492 43.357 27.9002 43.6732 27.875C45.548 27.6213 47.7141 27.4467 49.4731 27.1601C50.024 27.1055 50.6683 27.0792 51.3788 27.0824C52.0665 27.063 52.04 26.9367 51.2515 26.7837C50.8089 26.7039 50.3576 26.6275 49.8994 26.5548C47.8736 26.5499 47.0417 26.9267 44.7314 26.8312L43.6683 26.3428C43.3786 26.3362 43.0974 26.3343 42.8264 26.3369L38.9461 26.5514C38.623 26.5626 38.3711 26.5978 38.2189 26.6529C38.0667 26.708 38.0204 26.7808 38.0851 26.863C38.1096 26.9639 38.0546 27.0567 37.9221 27.1381C37.8366 27.1951 37.8894 27.2702 38.0689 27.347C38.4735 27.5201 37.95 27.5475 37.619 27.5927C37.5345 27.5973 37.4371 27.5972 37.3326 27.5924C37.2281 27.5876 37.1184 27.5782 37.01 27.5648C36.9016 27.5514 36.7965 27.5341 36.701 27.5142C36.6055 27.4942 36.5213 27.4718 36.4535 27.4483C35.8744 27.2843 35.3685 27.1109 34.7996 26.9298C35.2088 26.7528 34.7359 26.4667 35.3724 26.3056C35.4438 26.2737 35.4728 26.2349 35.4577 26.1918C35.4425 26.1487 35.3835 26.1021 35.2843 26.0548C35.0284 25.9329 34.9075 25.8136 34.934 25.7088C34.9604 25.6041 35.1332 25.5177 35.4349 25.4584L35.4723 25.3953C34.6829 25.1868 34.8963 24.998 34.5887 24.7753L33.8283 24.632C31.9364 24.2869 31.933 24.2927 30.2987 24.3117C29.9716 24.1789 30.3905 24.157 30.7046 24.1405L33.3354 23.9804C35.0555 23.8736 36.8251 23.7975 38.7453 23.7524C40.6656 23.7073 42.8078 23.5728 44.7936 23.4742C44.894 23.4668 44.971 23.4525 45.0181 23.4327C45.0651 23.4128 45.0809 23.3879 45.0641 23.3601C44.9857 23.3302 44.883 23.3015 44.7635 23.276C44.6439 23.2506 44.5107 23.2291 44.3735 23.2131C43.7435 23.135 43.0965 23.0857 42.4248 23.0209L41.1725 22.9089L40.7893 22.7568C40.5397 22.6644 40.3701 22.5511 40.0372 22.4853C39.7627 22.4363 39.4645 22.3994 39.1736 22.3786C38.8827 22.3577 38.6097 22.3535 38.3832 22.3666C37.755 22.3995 37.1865 22.4459 36.5864 22.4885C35.9864 22.5311 35.6553 22.5762 35.1353 22.5979C34.0792 22.6108 33.0583 22.6384 32.077 22.6804C31.2495 22.7745 30.4837 22.8851 29.7844 23.0116C29.3487 23.0622 28.941 23.1224 28.1995 23.0614C27.8482 23.0048 27.5456 22.9299 27.3454 22.8499C27.1452 22.7699 27.0604 22.6901 27.1059 22.6245C27.1466 22.5731 27.2601 22.5321 27.4357 22.5054C27.6112 22.4787 27.843 22.4672 28.1092 22.472C28.8548 22.4598 29.5446 22.4255 30.1648 22.3698C31.0284 22.2699 32.0784 22.2242 33.2536 22.2356C33.6519 22.2481 33.92 22.1952 34.269 22.1769C34.618 22.1586 34.9141 22.1153 35.3023 22.1449C36.5085 22.2205 37.0897 22.0957 37.8148 22.0132C38.0604 21.977 38.2132 21.9193 38.2564 21.8465C38.2995 21.7737 38.2314 21.6886 38.0594 21.6006C37.7284 21.4254 37.3229 21.2494 36.8491 21.0755C36.6052 20.9901 36.2922 20.9092 35.9347 20.8393C35.5772 20.7694 35.1848 20.7124 34.7885 20.6727C34.5527 20.5655 34.4278 20.4597 34.425 20.3648C34.4222 20.2699 34.5416 20.189 34.7724 20.1294C35.3604 19.9931 35.882 19.8547 37.1929 19.9248C37.8094 19.9511 38.3899 19.9544 38.9115 19.9346C40.068 19.9059 41.4007 19.9545 42.7839 20.0759C43.1417 20.107 43.4937 20.1278 43.8292 20.1377C46.2229 20.2066 48.5042 20.237 50.7923 20.2558C52.0044 20.2645 53.2267 20.256 54.4917 20.2896C57.4582 20.3618 60.1607 20.309 63.0251 20.3254C64.5252 20.3338 65.8692 20.2727 66.9864 20.1455C67.2043 20.1035 67.3916 20.0546 67.5462 19.9996C66.8097 19.8594 66 19.7492 65.1946 19.6796C64.3892 19.61 63.6152 19.5833 62.9466 19.6021C62.5785 19.6435 62.1034 19.6526 61.5745 19.6284C61.0456 19.6041 60.4835 19.5475 59.9509 19.4649L61.5043 19.4112C62.5343 19.385 63.5889 19.3741 64.5907 19.3383C66.1824 19.2771 67.6582 19.1831 69.306 19.1411C70.6365 19.1032 71.8281 19.0146 72.8433 18.878C73.5767 18.7784 74.4136 18.7065 75.337 18.664C75.9933 18.6407 75.9933 18.6407 76.416 18.4409C76.0856 18.3138 75.6557 18.2975 75.2505 18.2965C72.8225 18.2248 70.5108 18.2193 68.3625 18.28C67.279 18.2887 66.3168 18.3466 65.5223 18.451C65.3274 18.4946 64.8311 18.4762 64.4327 18.4637C63.1835 18.4472 61.989 18.4578 60.8637 18.4953C59.3077 18.5567 57.576 18.55 55.7359 18.4753C55.3885 18.377 55.7903 18.3837 55.8106 18.3493C57.238 18.28 58.6373 18.2011 60.0928 18.1415C60.4907 18.1207 60.9159 18.1096 61.3636 18.1082C63.0342 18.1356 64.4285 18.0373 65.3511 17.827C65.3986 17.7468 66.003 17.754 66.271 17.7011C66.4033 17.6556 66.4917 17.6024 66.5338 17.5429C66.1471 17.3966 65.7071 17.3975 65.3683 17.3986C64.3849 17.4187 63.4387 17.4535 62.534 17.5027C61.693 17.5495 60.7627 17.5646 59.7684 17.5477C59.0346 17.5306 58.4065 17.5636 57.666 17.558C57.2645 17.5419 56.849 17.5152 56.4282 17.4785C56.8993 17.3737 57.5384 17.308 58.3006 17.286C58.8793 17.2223 59.6019 17.2011 59.697 17.0406C59.4262 16.9271 59.1223 16.9264 58.878 16.9392C58.37 16.9406 57.8791 16.9497 57.408 16.9663C56.4091 17.0025 55.3281 17.007 54.1879 16.9796C53.5874 16.97 53.0173 16.9757 52.4872 16.9965C51.2862 17.0262 50.1346 17.0865 49.0349 17.1164C46.7826 17.1512 44.7272 17.2534 42.5627 17.3113C42.0809 17.3254 41.6485 17.3703 41.0151 17.298C40.3817 17.2257 40.3536 17.2161 40.2795 17.17C40.1032 17.0933 40.0507 17.0185 40.1328 16.9611C40.2596 16.9074 40.5054 16.8768 40.8263 16.8748C42.762 16.7828 44.5986 16.6569 46.3246 16.4978C47.0836 16.4644 47.7492 16.3995 48.2983 16.3055C48.7335 16.2405 49.2493 16.1966 49.8294 16.1753C50.6733 16.1263 51.5529 16.0895 52.4646 16.0649C52.8888 16.0519 53.2499 16.0167 53.5267 15.9612C53.8035 15.9056 53.9903 15.831 54.0762 15.7417L52.9642 15.4502C52.7889 15.437 52.615 15.4258 52.4432 15.4164L43.1671 15.6638L42.2487 15.6731C41.2425 15.6592 40.9973 15.6165 40.0485 15.2776C42.2287 15.1889 43.9455 14.9477 45.0279 14.578C44.77 14.5396 44.5054 14.5068 44.2404 14.4804C42.5007 14.4004 40.8552 14.3835 39.3671 14.4305C38.4836 14.4379 37.5754 14.43 36.6637 14.4278C36.9333 14.2582 37.9539 14.3046 38.6204 14.2642C40.2122 14.1988 41.621 14.0707 42.8018 13.884C43.2091 13.8114 43.7178 13.764 44.3048 13.7441C44.892 13.7358 45.3831 13.691 45.7355 13.6135C46.0879 13.536 46.2908 13.4282 46.3266 13.2994C46.3839 13.1828 46.505 13.0741 46.6879 12.9751C46.3696 12.8368 45.8627 12.705 45.2623 12.6046C44.6619 12.5042 44.0093 12.442 43.4269 12.4298C42.1842 12.3769 40.8957 12.2877 39.5944 12.1642C38.9462 12.1019 38.3102 12.0672 37.7276 12.0622C37.2138 12.0586 36.6305 12.014 36.0666 11.9353C35.5028 11.8566 34.9894 11.748 34.6047 11.6262C34.0852 11.4758 33.6006 11.3235 33.116 11.1712C32.6315 11.0189 32.0694 10.8263 31.504 10.6394C31.003 10.6117 30.515 10.5945 30.0466 10.588C29.682 10.5963 29.257 10.5773 28.8218 10.5332C28.3866 10.4891 27.9593 10.4218 27.5904 10.3392C27.8091 10.2556 28.0559 10.1815 28.3162 10.0846C27.9633 9.9592 27.7081 9.83092 27.5661 9.70758C27.4242 9.58424 27.3983 9.46843 27.4903 9.36721C27.5446 9.27552 27.1613 9.12348 27.0301 9.00265C26.8602 8.8987 26.8296 8.80122 26.9424 8.72297C27.0551 8.64473 27.3059 8.5894 27.6619 8.56421C28.1037 8.51853 28.4637 8.45087 28.7273 8.36401C28.8144 8.34139 28.859 8.31069 28.8572 8.27471C28.8553 8.23874 28.8071 8.19864 28.7167 8.15809C28.6264 8.11753 28.4969 8.07781 28.3402 8.04256C28.1834 8.0073 28.0043 7.97764 27.8193 7.95629C27.2525 7.89591 26.6892 7.8575 26.1618 7.84327C25.2532 7.81686 24.3833 7.80138 23.5519 7.79684C22.6326 7.78876 21.6108 7.72163 20.5903 7.60226C19.6768 7.48912 18.8577 7.38768 18.4139 7.16663C17.9701 6.94558 17.2543 6.95534 16.7067 6.79525C17.0184 6.64795 17.5696 6.54437 18.3048 6.49494C18.7857 6.47649 19.1876 6.43125 19.4848 6.36213C19.782 6.29301 19.9678 6.20153 20.0305 6.09356L18.3674 5.64769C17.0366 5.43981 16.2955 5.60637 14.8551 5.52639L16.3437 5.35398C16.3738 5.33738 16.3853 5.31796 16.3776 5.29668C16.2392 4.95968 16.011 4.88835 14.4955 4.70681L13.6451 4.60148L12.2982 4.47772C12.0834 4.40935 11.9352 4.33777 11.8685 4.27014C11.8017 4.2025 11.8188 4.14119 11.918 4.09233C12.1171 4.01003 12.179 3.90559 12.098 3.78861C11.9685 3.7114 11.959 3.63981 12.071 3.58627C12.183 3.53273 12.4096 3.50061 12.7113 3.4955C12.9522 3.48843 12.9716 3.39856 13.1035 3.34723C13.2349 3.27667 13.4585 3.22207 13.7593 3.18714C14.0601 3.15221 14.4308 3.13777 14.8464 3.14482C16.072 3.14728 17.224 3.11669 18.2817 3.0536L18.0927 3.03019C19.1933 3.07804 20.223 3.08051 21.1315 3.03749C22.0423 2.9842 23.2094 3.01188 24.1763 2.97785C24.9629 2.98191 25.5631 2.91062 25.8494 2.77911C26.1267 2.65352 27.1261 2.67888 27.8913 2.69984C28.3447 2.71356 28.7829 2.71846 29.2014 2.71447C29.7636 2.68419 30.4655 2.70816 31.19 2.78238C31.4073 2.80521 31.6216 2.81692 31.8123 2.81639C33.6569 2.84186 35.498 2.87306 37.3179 2.88317C37.7382 2.87189 38.2305 2.89231 38.7369 2.94205C38.9498 2.96366 39.1572 2.97218 39.3312 2.96644C42.2082 2.90448 45.4514 3.02321 48.2722 2.942C48.6142 2.92402 48.9926 2.91914 49.3967 2.92749C50.3043 2.96567 51.0935 2.93599 51.6446 2.84298C51.9419 2.79349 52.3224 2.76541 52.7619 2.76054C53.2014 2.75567 53.6903 2.77411 54.1973 2.81468C55.0412 2.86776 55.822 2.87095 56.4572 2.82393C57.695 2.77805 58.9962 2.75625 60.3506 2.75868C60.7655 2.76436 61.1306 2.74696 61.4176 2.70785C61.7047 2.66873 61.9059 2.60893 62.0058 2.5331C61.6753 2.40606 61.3119 2.3918 60.9663 2.40436C59.6282 2.3801 58.2934 2.35012 56.98 2.34122C55.8049 2.30624 54.6769 2.29841 53.6126 2.31783C53.084 2.33724 52.4254 2.29991 51.7806 2.21396C50.9905 2.10502 50.1756 2.05246 49.5008 2.06693C49.0007 2.07176 48.4729 2.06408 47.9252 2.04402C47.5749 2.01867 47.2161 1.97423 46.8857 1.91527C46.7547 1.88962 46.6119 1.86817 46.4666 1.8523C46.3212 1.83643 46.1766 1.8265 46.0418 1.82311C45.907 1.81973 45.7849 1.82297 45.6836 1.83265C45.5822 1.84232 45.5038 1.85822 45.4531 1.87932C44.9427 2.05599 43.8096 1.97101 42.8383 1.95528C41.3874 1.66487 40.3007 1.84399 38.9428 1.68196C38.8354 1.67128 38.7295 1.66497 38.6316 1.66342C38.5337 1.66187 38.4458 1.66511 38.3733 1.67294C35.7381 1.78329 32.6703 1.71089 29.9048 1.75589C29.5998 1.76211 29.2461 1.74602 28.8841 1.70945C26.5182 1.46733 24.2405 1.40456 22.4964 1.53342C22.2842 1.54523 22.0431 1.5466 21.7839 1.53745C20.5946 1.44215 19.4563 1.40662 18.4641 1.43383C16.9098 1.43201 15.4151 1.44373 13.8361 1.42654C12.7479 1.39779 11.7922 1.43638 11.0646 1.53848C11.0409 1.57859 10.5581 1.53726 10.1879 1.53446C9.97662 1.43448 9.79353 1.34414 9.57549 1.25563C9.38111 1.14584 9.08899 1.03509 8.71903 0.930899C8.34908 0.826708 7.90997 0.731514 7.43127 0.651746C6.61226 0.550309 6.5328 0.398987 7.10812 0.341072C8.59174 0.151013 10.4546 0.0685551 12.5598 0.0997535C14.3201 0.0963312 16.1119 0.0968169 17.8969 0.108756C18.9379 0.120819 20.0351 0.152134 21.0481 0.154567C21.3897 0.166915 21.7405 0.185677 22.0968 0.210653C22.534 0.247161 22.9588 0.26636 23.3482 0.267218C24.5994 0.230454 25.9946 0.253245 27.4674 0.334502C28.007 0.351412 28.5254 0.355856 29.0148 0.34778C30.1729 0.319934 31.4276 0.332595 32.7457 0.385432C33.565 0.414941 34.3597 0.429012 35.1216 0.427488C35.3905 0.430047 35.6101 0.401882 35.8689 0.421632C38.1462 0.629868 39.7641 0.467332 41.8156 0.543036C42.813 0.562564 43.7663 0.559086 44.662 0.532655C46.4094 0.527278 48.205 0.544362 50.0418 0.583836C52.4704 0.650882 54.7226 0.616115 57.0421 0.638902C57.5001 0.6438 57.9424 0.641033 58.3658 0.63061C60.4258 0.564498 62.6619 0.568584 65.0197 0.642766C65.5552 0.652761 66.0366 0.636317 66.4337 0.594481C66.8309 0.552643 67.1353 0.486309 67.3278 0.399628C67.4096 0.340325 67.3586 0.263881 67.1845 0.185046C66.895 0.0846146 66.5679 -0.0136243 66.2086 -0.108055L53.0816 -0.380614C52.5303 -0.395347 51.9926 -0.402382 51.4712 -0.401693C49.9375 -0.398785 48.3569 -0.417911 46.7375 -0.458973C45.1372 -0.497248 43.6075 -0.483712 42.0566 -0.491263C41.5998 -0.494025 41.131 -0.502806 40.6521 -0.517584C37.4157 -0.636594 34.259 -0.704898 31.2042 -0.722005C29.9189 -0.721267 28.5313 -0.776249 27.2213 -0.790873C25.9113 -0.805496 24.1195 -0.805974 22.5652 -0.807794L17.7525 -0.78874C16.806 -0.789101 15.8841 -0.774102 14.9657 -0.764831C13.8585 -1.17876 13.4761 -1.27533 11.9922 -1.45296C11.4846 -1.51864 10.9679 -1.55703 10.5025 -1.56366C9.02568 -1.52512 7.1758 -1.65581 5.7756 -1.6324C4.93105 -1.63824 4.21347 -1.58913 3.69633 -1.4901C3.24755 -1.41222 2.73483 -1.35001 2.16609 -1.3044C0.616365 -1.65627 0.483262 -1.88805 1.65523 -1.98279C1.9727 -2.00498 2.40937 -2.0001 2.63913 -2.04546C2.77099 -2.07305 2.95074 -2.08922 3.16408 -2.0927C3.37741 -2.09617 3.61841 -2.08685 3.8682 -2.06547C4.65672 -2.00988 5.39651 -1.99886 6.01333 -2.03353C6.59405 -2.07855 7.30493 -2.07948 8.07746 -2.03623C8.64447 -1.96601 9.14571 -2.07001 9.63767 -2.10134C10.1296 -2.13268 10.5338 -2.18719 11.3 -2.11075C11.4403 -2.09548 11.5797 -2.08652 11.7075 -2.08456C11.8353 -2.08259 11.9481 -2.08767 12.0372 -2.09941C12.8625 -2.15355 13.8462 -2.15184 14.9083 -2.09443C16.538 -2.0401 18.068 -2.04353 19.4453 -2.10457C20.2699 -2.15657 20.9739 -2.24597 21.5295 -2.36928C21.6811 -2.41039 21.9055 -2.43554 22.1814 -2.44232C23.5656 -2.42217 25.0675 -2.33254 26.5902 -2.17923C27.1638 -2.11766 27.7368 -2.0694 28.2971 -2.03549C29.4485 -1.9598 30.5628 -1.91913 31.6068 -1.91468C33.124 -1.919 34.7032 -1.8941 36.3302 -1.84021C37.3344 -1.81056 38.3024 -1.80184 39.2226 -1.81414C40.1684 -1.82183 41.1777 -1.80013 42.2276 -1.74952C43.2718 -1.70899 44.1932 -1.73801 44.8806 -1.83306C45.1073 -1.88375 45.2903 -1.94362 45.426 -2.01156C43.8997 -2.22531 42.3192 -2.33096 41.0026 -2.30721C40.5029 -2.31989 40.0876 -2.30367 39.5623 -2.38719L39.5453 -2.35854C39.4401 -2.33959 39.2819 -2.33463 39.1007 -2.34459C38.9196 -2.35455 38.7282 -2.37873 38.5629 -2.41254C38.6275 -2.52142 38.6886 -2.62457 38.7327 -2.69906C39.7354 -2.68968 40.7091 -2.69436 41.649 -2.7131C42.4414 -2.73797 43.5134 -2.54985 44.2002 -2.62472C45.5358 -2.53925 46.3894 -2.66728 47.588 -2.63571C48.7865 -2.60414 50.1052 -2.49002 51.3038 -2.45845C52.3498 -2.44257 53.3658 -2.44204 54.346 -2.45688C54.6845 -2.47385 55.0744 -2.47162 55.4917 -2.45031C56.0782 -2.40947 56.6242 -2.40429 57.0672 -2.43537C57.5102 -2.46645 57.8322 -2.53252 57.9965 -2.62602C57.8449 -2.71246 57.6405 -2.82389 57.4045 -2.93923C57.8439 -3.03636 58.5095 -3.07904 59.3024 -3.06093L60.4235 -3.06971C60.7205 -3.06829 60.948 -3.09496 61.059 -3.14418C61.17 -3.1934 61.156 -3.26142 61.0198 -3.33417C58.9006 -3.69506 58.8231 -3.73542 57.2589 -3.49241L55.1895 -3.59494L55.2244 -3.59677ZM83.2237 -2.68785L83.0662 -2.70735L83.2237 -2.68785ZM340.677 35.5895L340.64 35.6525L340.68 35.5838L341.027 35.6267L341.051 35.5866L340.677 35.5895ZM290.734 8.20708C290.244 8.14028 289.75 8.07903 289.253 8.02371C289.123 8.01533 289.001 8.01378 288.898 8.0192C288.795 8.02461 288.713 8.03682 288.66 8.0548C288.619 8.12357 288.896 8.17015 289.148 8.20136C289.466 8.24344 289.791 8.26973 290.089 8.27751C290.388 8.28529 290.649 8.27428 290.846 8.24561L291.132 8.21951L290.734 8.20708ZM37.6249 25.8711C37.9478 25.8814 38.2543 25.8822 38.5366 25.8733C39.7894 25.8131 40.9895 25.728 42.2738 25.6718C43.8955 25.5352 45.7574 25.4751 47.7894 25.4938C48.5833 25.5036 49.2548 25.4588 49.7258 25.3645C50.0076 25.3138 50.3707 25.2835 50.793 25.2753L56.169 25.1045C56.5017 25.072 56.7896 25.0271 57.026 24.9708C56.5535 24.9123 56.2385 24.8733 56.0495 24.8498C55.6566 24.8445 55.3184 24.8642 55.069 24.9068C54.8006 24.9785 54.3485 25.0081 53.8024 24.9898C53.2512 24.9751 52.7134 24.9681 52.192 24.9687C51.2072 24.9759 50.2154 24.9946 49.2272 25.0075C48.8394 25.2055 47.7063 25.1206 46.735 25.1048L45.9843 25.1164C43.529 25.2274 41.1829 25.3764 38.9574 25.5625C38.5273 25.5941 38.1564 25.6435 37.8562 25.709C37.7426 25.7597 37.7054 25.8225 37.7475 25.8924L37.59 25.8729L37.6249 25.8711ZM146.863 44.2599C147.458 44.2711 148.078 44.2963 148.712 44.3352C149.201 44.3754 149.678 44.3992 150.125 44.4055C152.626 44.4403 155.232 44.5324 157.907 44.6805C158.257 44.7032 158.594 44.7137 158.903 44.7116L161.096 44.6633C161.787 44.6382 161.801 44.6153 161.303 44.3138C160.887 44.2564 160.466 44.2043 160.043 44.1577C159.791 44.1265 159.382 44.0758 159.285 44.1253C158.697 44.2616 157.63 44.1787 156.732 44.1536C154.132 44.09 151.452 43.9917 148.827 43.9127C148.273 43.8931 147.735 43.8841 147.22 43.8859C146.901 43.8825 146.609 43.8922 146.358 43.9144C146.285 43.9169 146.223 43.9234 146.178 43.9337C146.132 43.944 146.103 43.9577 146.094 43.974C146.084 43.9902 146.094 44.0086 146.122 44.028C146.15 44.0474 146.195 44.0673 146.256 44.0863C146.47 44.1531 146.717 44.2169 146.989 44.2756L146.863 44.2599ZM166.679 0.156199L169.242 0.110705C169.549 0.105705 169.81 0.0642503 170.139 0.0803424C171.892 0.128695 173.517 0.107375 174.944 0.0172818C175.43 -0.0191237 175.998 -0.028155 176.616 -0.00930796C178.511 0.046308 180.299 0.0422403 181.932 -0.021407C182.987 -0.0368831 183.975 -0.0793653 184.881 -0.148222C184.951 -0.163683 184.995 -0.184487 185.01 -0.20921C185.024 -0.233934 185.009 -0.261995 184.966 -0.291485C184.955 -0.310176 184.924 -0.330212 184.876 -0.350214C184.828 -0.370214 184.764 -0.389709 184.687 -0.407347C184.611 -0.424985 184.525 -0.440344 184.434 -0.452379C184.344 -0.464414 184.251 -0.472838 184.163 -0.47706C183.021 -0.56146 181.937 -0.588312 180.997 -0.555432C180.127 -0.517032 179.189 -0.503259 178.2 -0.514329C177.254 -0.514689 176.61 -0.397639 175.442 -0.480786C174.947 -0.507758 174.511 -0.496651 174.206 -0.449326C173.592 -0.370485 172.737 -0.36305 171.793 -0.42834C171.228 -0.46106 170.687 -0.473984 170.192 -0.466619C168.991 -0.436985 167.843 -0.382357 166.73 -0.329557C166.379 -0.316996 166.003 -0.314046 165.609 -0.320766L160.04 -0.395355C158.702 -0.419609 157.367 -0.449597 156.054 -0.45849C154.98 -0.484408 153.98 -0.471325 153.089 -0.419699C152.139 -0.365388 151.104 -0.340924 150.003 -0.346769C148.292 -0.312621 146.591 -0.295669 144.73 -0.29249C143.542 -0.285776 142.327 -0.288692 141.086 -0.306974C140.459 -0.334105 139.926 -0.30813 139.589 -0.234051C139.384 -0.173331 138.905 -0.220395 138.506 -0.232828C136.383 -0.35905 134.389 -0.383418 132.665 -0.30424C132.445 -0.291564 132.204 -0.286373 131.946 -0.288761C130.287 -0.285094 128.569 -0.294961 126.976 -0.289222C126.557 -0.282009 126.162 -0.265026 125.796 -0.23849C125.835 -0.197557 125.945 -0.153446 126.105 -0.115308C126.265 -0.0771715 126.462 -0.0479315 126.655 -0.0336573C128.16 0.0755113 129.613 0.130732 130.954 0.129693C133.187 0.106773 135.525 0.130951 137.945 0.201961C139.821 0.27564 141.534 0.252293 142.955 0.133655C144.067 0.0449463 145.509 0.0714064 147.036 0.208495C147.69 0.27425 148.324 0.299153 148.854 0.279806C149.363 0.25511 149.948 0.258469 150.572 0.289677C151.889 0.348541 153.157 0.37341 154.349 0.363789C155.515 0.335984 156.604 0.26782 157.802 0.243915C158.999 0.220012 160.822 0.224382 162.299 0.185845C163.776 0.147308 165.236 0.137429 166.679 0.156199ZM60.5644 -2.79392C60.6966 -2.61762 61.1735 -2.50935 61.6877 -2.46411C63.4596 -2.26137 65.2135 -2.17882 66.6547 -2.2303C67.434 -2.29753 68.4709 -2.27662 69.5617 -2.17167C70.8321 -2.06308 72.021 -2.04871 72.9189 -2.13109C73.1388 -2.14571 73.3075 -2.17553 73.4099 -2.2179C73.4303 -2.25228 73.4677 -2.31531 73.4745 -2.32677C73.3808 -2.35543 73.2657 -2.38187 73.1382 -2.40407C73.0106 -2.42627 72.874 -2.44362 72.7389 -2.45479L66.861 -2.63533L65.8369 -2.67605C63.9669 -2.78578 62.1839 -2.82563 60.5644 -2.79392ZM72.0846 -0.0384686C72.9975 0.246832 73.0008 0.241089 73.4699 0.305341C75.7338 0.571051 77.9984 0.710609 79.9942 0.707414C80.4377 0.704928 80.8147 0.675662 81.093 0.622071C81.2359 0.614417 81.3271 0.591447 81.3469 0.558169C81.3666 0.524892 81.3132 0.484004 81.1983 0.444425L80.4719 0.243741C79.1478 0.160613 77.8425 0.0955014 76.5637 0.0488023C75.0749 -0.00642157 73.7546 -0.00385938 72.2105 -0.0228718L72.0846 -0.0384686ZM146.775 42.9819C147.624 43.3761 147.627 43.3704 149.057 43.4675C150.054 43.5365 151.021 43.5755 151.93 43.5835C153.041 43.5919 154.18 43.6099 155.288 43.6241C155.558 43.6357 155.787 43.6244 155.931 43.5922C156.075 43.56 156.124 43.5093 156.067 43.45C155.923 43.3858 155.696 43.3241 155.425 43.2748C155.153 43.2256 154.852 43.1916 154.571 43.1785L153.967 43.1714C153.233 43.1543 152.471 43.1276 151.762 43.1259C151.302 43.1441 150.769 43.1333 150.205 43.0945C149.642 43.0556 149.062 42.9897 148.513 42.9019L146.775 42.9819ZM76.6912 -2.33435C76.9184 -2.26638 77.1755 -2.20143 77.4558 -2.14123C78.5422 -1.97551 79.6935 -1.88338 80.684 -1.88289C81.1522 -1.87411 81.5811 -1.91325 82.057 -1.86046C82.911 -1.79073 83.7392 -1.75497 84.4968 -1.75512C84.4968 -1.75512 84.7096 -1.77183 84.7793 -1.77549L84.9288 -2.02763C84.5711 -2.08459 84.1979 -2.13081 83.8262 -2.16419C82.5783 -2.22648 81.3516 -2.26769 80.1284 -2.31462C78.9051 -2.36155 78.4787 -2.38362 77.6785 -2.40275C77.3212 -2.38927 76.9905 -2.36636 76.6912 -2.33435ZM49.0997 29.0453L50.7254 29.5542C51.2536 29.597 51.7476 29.6033 52.1323 29.5721C52.517 29.5409 52.7713 29.474 52.8565 29.3814C52.9919 29.3378 53.0065 29.2738 52.8972 29.203C52.7879 29.1321 52.5632 29.0598 52.2703 29.0013C51.9887 28.9317 51.6668 28.8695 51.3247 28.8187C50.9826 28.7679 50.6275 28.7294 50.2815 28.7058L49.0997 29.0453ZM62.7542 26.4307C61.6865 26.3473 60.6646 26.3154 59.7663 26.3374C59.1997 26.3906 58.4335 26.3772 57.6247 26.2998C56.1541 26.145 54.7345 26.106 53.6656 26.1908C53.6656 26.1908 53.6247 26.2596 53.4435 26.2802C53.2622 26.3008 53.979 26.3465 54.1365 26.366C55.2933 26.4109 56.457 26.4443 57.4631 26.4581C58.088 26.4551 58.7487 26.4688 59.4337 26.4992C60.3762 26.5465 61.2706 26.5597 62.0819 26.5381C62.0819 26.5381 62.396 26.5216 62.7508 26.4364L62.7542 26.4307ZM177.399 -0.816582C176.89 -0.91167 176.338 -0.988438 175.783 -1.04112C175.229 -1.0938 174.687 -1.12103 174.198 -1.12077C173.824 -1.12444 173.52 -1.0977 173.336 -1.04479C173.151 -0.991886 173.096 -0.915822 173.179 -0.828629C173.558 -0.78181 174.062 -0.71939 174.345 -0.684276C175.33 -0.691477 176.171 -0.741103 177.399 -0.816582ZM272.852 7.0011C272.443 6.92455 271.993 6.86653 271.552 6.83368C271.111 6.80082 270.697 6.79445 270.358 6.8153C270.184 6.82444 270.3 6.91272 270.27 6.96429C270.25 6.97604 270.25 6.99054 270.27 7.00631C270.289 7.02207 270.328 7.03851 270.381 7.05389C270.434 7.06928 270.5 7.08304 270.572 7.09375C270.644 7.10445 270.719 7.11171 270.789 7.11474C271.233 7.14673 271.653 7.15517 272.01 7.13935C272.368 7.12351 272.652 7.08389 272.838 7.02402L272.852 7.0011ZM279.237 8.09338C279.175 8.04755 279.041 8.00004 278.86 7.95955C278.679 7.91906 278.463 7.88831 278.252 7.87295C277.879 7.87217 277.539 7.88621 277.247 7.91453C276.929 7.93673 277.155 8.06926 277.583 8.1468C277.764 8.17789 277.957 8.20195 278.148 8.21706C278.339 8.23217 278.521 8.23791 278.681 8.23384C278.841 8.22977 278.974 8.21598 279.07 8.19359C279.165 8.1712 279.22 8.14081 279.23 8.10485L279.237 8.09338ZM93.31 -1.90612C92.3572 -2.06718 91.621 -2.02303 90.8131 -2.08619C90.0052 -2.14934 89.806 -2.15556 89.9126 -2.0501C90.0191 -1.94463 90.5741 -1.96816 90.9206 -1.92525C91.3888 -1.86833 91.8602 -1.8364 92.2822 -1.83303C92.7042 -1.82965 93.0601 -1.85496 93.31 -1.90612ZM291.953 25.206C291.447 25.171 290.952 25.1467 290.474 25.1336C290.411 25.1491 290.371 25.1693 290.357 25.1929C290.343 25.2166 290.355 25.2431 290.393 25.2711C290.393 25.2711 290.715 25.3542 290.904 25.3776C291.601 25.4577 291.637 25.3392 291.953 25.206ZM363.225 40.2767C363.566 40.3865 363.724 40.4615 363.997 40.5138C364.123 40.5318 364.253 40.5448 364.378 40.5517C364.502 40.5587 364.618 40.5594 364.717 40.5538C364.839 40.5213 364.868 40.4722 364.799 40.4163C364.799 40.4163 364.452 40.3179 364.319 40.3137C363.94 40.2916 363.573 40.2791 363.225 40.2767ZM77.0608 -2.78682C76.3363 -2.87655 75.6432 -2.96239 75.1386 -2.85265C76.2896 -2.74085 76.2897 -2.74084 77.0608 -2.78682ZM88.803 -1.77539C88.0732 -1.97035 87.6433 -1.98669 87.2909 -1.96267C87.216 -1.95667 87.1663 -1.94373 87.1493 -1.92583C87.1323 -1.90792 87.1489 -1.88601 87.1966 -1.86342C87.2444 -1.84083 87.3206 -1.81878 87.4139 -1.80061C87.5071 -1.78244 87.6123 -1.76913 87.7135 -1.76271C88.0957 -1.75844 88.4604 -1.76268 88.803 -1.77539ZM126.538 -1.83206C126.555 -1.86071 126.575 -1.89509 126.386 -1.9185C126.337 -1.93056 126.279 -1.94087 126.218 -1.9484C126.157 -1.95593 126.096 -1.96042 126.04 -1.96141C126.04 -1.96141 126.019 -1.92703 126.006 -1.90411L126.538 -1.83206ZM151.921 45.5384L151.499 45.5661L151.688 45.5895L152.188 45.6022L151.921 45.5384ZM301.055 7.56619C300.897 7.54668 300.74 7.52717 300.716 7.56728C300.682 7.57361 300.662 7.58263 300.655 7.5936C300.649 7.60456 300.657 7.61715 300.678 7.63032C300.678 7.63032 300.899 7.65763 300.993 7.66933L301.055 7.56619ZM276.465 7.97769C276.362 7.97579 276.268 7.97882 276.19 7.9866L276.169 8.02098L276.484 8.06L276.465 7.97769ZM62.0845 16.9488C61.963 16.9284 61.834 16.9124 61.7065 16.902L61.549 16.8825C61.549 16.8825 61.7176 16.9403 61.8121 16.952C61.9066 16.9637 61.9833 16.9486 62.0845 16.9488Z" fill="#DF6951"/>
</svg>
