<svg width="49" height="50" viewBox="0 0 49 50" fill="none" xmlns="http://www.w3.org/2000/svg">
<rect x="0.820042" y="0.783691" width="47.7126" height="48.7278" rx="13.1971" fill="#F0BB1F"/>
<path d="M14.57 18.5242C14.2689 18.5242 14.0226 18.2779 14.0171 17.9768V14.5337C14.0171 14.2272 14.2635 13.9808 14.57 13.9808H18.0131C18.3142 13.9808 18.5605 14.2272 18.5605 14.5337V15.7325H31.8074V14.5337C31.8074 14.2326 32.0537 13.9863 32.3547 13.9808H35.7978C36.0989 13.9808 36.3452 14.2272 36.3507 14.5337V17.9768C36.3507 18.2779 36.1044 18.5242 35.7978 18.5242H34.599V31.771H35.7978C36.0989 31.771 36.3452 32.0174 36.3507 32.3184V35.7615C36.3507 36.0626 36.1044 36.3089 35.7978 36.3144H32.3547C32.0537 36.3144 31.8074 36.0681 31.8074 35.7615V34.5627H18.5605V35.7615C18.5605 36.0626 18.3142 36.3089 18.0131 36.3144H14.57C14.2689 36.3144 14.0226 36.0681 14.0171 35.7615V32.3184C14.0171 32.0174 14.2635 31.771 14.57 31.771H15.7688V18.5242H14.57ZM35.2559 17.4294V15.0756H32.9021V17.4294H35.2559ZM32.9021 35.2196H35.2559V32.8658H32.9021V35.2196ZM18.5605 32.3184V33.468H31.8074V32.3184C31.8074 32.0174 32.0537 31.771 32.3547 31.771H33.5043V18.5242H32.3547C32.0537 18.5242 31.8074 18.2779 31.8074 17.9768V16.8273H18.5605V17.9768C18.5605 18.2779 18.3142 18.5242 18.0131 18.5242H16.8636V31.771H18.0131C18.3142 31.771 18.5605 32.0174 18.5605 32.3184ZM15.1119 32.8658V35.2196H17.4657V32.8658H15.1119ZM17.4657 17.4294V15.0756H15.1119V17.4294H17.4657Z" fill="white"/>
</svg>
